<?xml version="1.0" encoding="UTF-8"?>
<svg version="1.1" xmlns="http://www.w3.org/2000/svg" viewBox="100 200 310 100" width="310" height="100">
<path d="M0 0 C3.96256316 3.13702917 5.30142206 5.08578836 6 10 C6.07790887 11.83848168 6.10793615 13.67942827 6.09765625 15.51953125 C6.09443359 16.54111328 6.09121094 17.56269531 6.08789062 18.61523438 C6.07532227 20.19788086 6.07532227 20.19788086 6.0625 21.8125 C6.05798828 22.88693359 6.05347656 23.96136719 6.04882812 25.06835938 C6.03707729 27.71229683 6.02064787 30.35611952 6 33 C-3.2551838 37.88877292 -13.63731023 39.79258126 -23.8125 36.75 C-27.37891964 35.39314227 -29.90262403 34.32084529 -32 31 C-33.21874855 26.61080067 -33.48580132 22.47166101 -32 18.125 C-30.0785065 15.1226664 -28.81689113 13.61175431 -25.43359375 12.42578125 C-18.71038444 11.24948941 -10.53923168 10.9471779 -4 13 C-5.11854586 9.27385847 -5.11854586 9.27385847 -8 7 C-15.03692952 6.68968145 -22.0673122 6.67948804 -29 8 C-29.125 4.625 -29.125 4.625 -29 1 C-22.23893675 -5.76106325 -7.83482652 -3.74579325 0 0 Z M-23 22 C-23.41666667 24.5 -23.41666667 24.5 -23 27 C-21.03826494 29.40258361 -21.03826494 29.40258361 -17.33984375 29.23046875 C-15.87233136 29.22647733 -14.40481791 29.21172158 -12.9375 29.1875 C-11.81891602 29.1865332 -11.81891602 29.1865332 -10.67773438 29.18554688 C-7.03982367 29.48822531 -7.03982367 29.48822531 -4 28 C-3.95907063 25.66702567 -3.95758277 23.33294775 -4 21 C-7.34890621 19.88369793 -9.97539261 19.83234576 -13.5 19.8125 C-14.6446875 19.79832031 -15.789375 19.78414062 -16.96875 19.76953125 C-20.17762385 19.76450943 -20.17762385 19.76450943 -23 22 Z " fill="#03493B" transform="translate(173,226)"/>
<path d="M0 0 C2.93644672 2.49153055 4.36530566 5.35561133 6.0625 8.75 C6.046875 11.02734375 6.046875 11.02734375 5.8125 13.6875 C5.74546875 14.56277344 5.6784375 15.43804687 5.609375 16.33984375 C4.9807356 19.11034739 4.30221157 20.04888574 2.0625 21.75 C-0.53007669 22.61419223 -2.27787707 22.92580932 -4.94921875 23.06640625 C-5.70654297 23.10830078 -6.46386719 23.15019531 -7.24414062 23.19335938 C-8.42266602 23.25233398 -8.42266602 23.25233398 -9.625 23.3125 C-10.82092773 23.37727539 -10.82092773 23.37727539 -12.04101562 23.44335938 C-14.00631447 23.54927368 -15.97188496 23.65012551 -17.9375 23.75 C-16.89363101 26.34644433 -16.89363101 26.34644433 -14.9375 28.75 C-11.91637925 29.39435361 -11.91637925 29.39435361 -8.5625 29.125 C-7.44101562 29.09148437 -6.31953125 29.05796875 -5.1640625 29.0234375 C-2.34320086 28.78438143 0.30620409 28.37971555 3.0625 27.75 C3.0625 30.39 3.0625 33.03 3.0625 35.75 C-2.80996828 39.45892733 -8.51720083 39.74168451 -15.18359375 38.24609375 C-20.43303754 36.50951027 -23.9138767 33.74268235 -27.046875 29.109375 C-28.37071738 25.60235397 -28.30610783 22.13536928 -28.3125 18.4375 C-28.33699219 17.70337891 -28.36148437 16.96925781 -28.38671875 16.21289062 C-28.41660153 10.59990831 -27.18589736 7.34515285 -23.9375 2.75 C-17.10270428 -3.09554897 -8.03724646 -3.42010488 0 0 Z M-17.9375 9.75 C-18.2675 11.4 -18.5975 13.05 -18.9375 14.75 C-13.9875 14.75 -9.0375 14.75 -3.9375 14.75 C-2.59084636 11.00011387 -2.59084636 11.00011387 -3.8125 8.5 C-6.7597944 6.07281638 -9.06166342 6.31020694 -12.78125 6.31640625 C-15.48291005 6.85967485 -16.33617266 7.51888234 -17.9375 9.75 Z " fill="#0C4C40" transform="translate(389.9375,225.25)"/>
<path d="M0 0 C3.96952138 3.582251 5.37905256 6.56974933 5.9375 11.875 C5.53275901 15.58512574 4.88112003 17.41422496 2.5625 20.3125 C-0.30926059 22.06865099 -2.42052739 22.55559961 -5.765625 22.5078125 C-6.56484375 22.50136719 -7.3640625 22.49492187 -8.1875 22.48828125 C-9.0125 22.47152344 -9.8375 22.45476562 -10.6875 22.4375 C-11.52796875 22.42847656 -12.3684375 22.41945312 -13.234375 22.41015625 C-15.30220604 22.38665817 -17.36988995 22.35078908 -19.4375 22.3125 C-17.88454406 25.41193038 -17.88454406 25.41193038 -15.4375 28.3125 C-12.34560836 29.07405006 -12.34560836 29.07405006 -9 28.75 C-7.88753906 28.70746094 -6.77507812 28.66492188 -5.62890625 28.62109375 C-2.83221486 28.35066704 -0.17533718 27.93171177 2.5625 27.3125 C2.5625 29.9525 2.5625 32.5925 2.5625 35.3125 C-4.92470798 38.58468719 -11.69943852 39.1792261 -19.55078125 36.625 C-23.63054403 34.66811164 -26.02087062 31.97078338 -27.77734375 27.91796875 C-29.58528415 20.78248801 -29.84703788 12.33293831 -26.6875 5.5625 C-20.40154817 -3.5172082 -9.62410569 -4.72456098 0 0 Z M-18 8.625 C-19.67332613 11.24542627 -19.67332613 11.24542627 -19.4375 14.3125 C-14.4875 14.3125 -9.5375 14.3125 -4.4375 14.3125 C-4.4375 12.3325 -4.4375 10.3525 -4.4375 8.3125 C-6.81875912 5.93124088 -7.54457538 5.96728359 -10.8125 5.875 C-14.48386134 5.94594418 -15.14927751 6.05239678 -18 8.625 Z " fill="#4B766E" transform="translate(285.4375,225.6875)"/>
<path d="M0 0 C1.32 2.64 2.64 5.28 4 8 C4.99 8 5.98 8 7 8 C7.99 5.36 8.98 2.72 10 0 C12.97 0.33 15.94 0.66 19 1 C18.42857143 10.57142857 18.42857143 10.57142857 14 15 C16.475 15.495 16.475 15.495 19 16 C19.36923077 22.4 19.36923077 22.4 17.5 25.4375 C17.005 25.953125 16.51 26.46875 16 27 C16.495 27.515625 16.99 28.03125 17.5 28.5625 C19.49649241 31.80680017 19.21564385 34.26217334 19 38 C14.545 38.495 14.545 38.495 10 39 C9.31640625 36.98177083 8.6328125 34.96354167 7.94921875 32.9453125 C7.03664453 30.66005095 7.03664453 30.66005095 4 29 C3.01 31.97 2.02 34.94 1 38 C-3.05431692 39.15837626 -5.21812119 38.83691257 -9 37 C-7 28.42857143 -7 28.42857143 -5 25 C-6.32 24.34 -7.64 23.68 -9 23 C-9 20.69 -9 18.38 -9 16 C-7.35 15.34 -5.7 14.68 -4 14 C-4.639375 13.154375 -5.27875 12.30875 -5.9375 11.4375 C-8.1966273 8.09271435 -8.67791759 5.02603008 -9 1 C-5.92677456 0.08941469 -3.19902639 -0.08886184 0 0 Z " fill="#094B3E" transform="translate(194,224)"/>
<path d="M0 0 C0 2.97 0 5.94 0 9 C-0.7425 8.835 -1.485 8.67 -2.25 8.5 C-7.50409401 7.79945413 -12.70751749 7.92292501 -18 8 C-18.33 9.32 -18.66 10.64 -19 12 C-17.865625 12.2475 -16.73125 12.495 -15.5625 12.75 C-8.5138187 14.53716565 -1.39240351 16.90731127 3 23 C3.55156805 26.86097632 3.35698156 29.17330586 1.8125 32.75 C-1.05192489 36.3058378 -4.47679182 38.3538274 -9 39 C-14.92978327 39.3015144 -20.29658179 38.70977745 -26 37 C-27 36 -27 36 -27.09765625 33.93359375 C-27.08605469 33.10988281 -27.07445312 32.28617187 -27.0625 31.4375 C-27.05347656 30.61121094 -27.04445313 29.78492188 -27.03515625 28.93359375 C-27.02355469 28.29550781 -27.01195312 27.65742188 -27 27 C-26.0925 27.33 -25.185 27.66 -24.25 28 C-18.93816204 29.55521854 -13.47979305 29.16196433 -8 29 C-8 27.68 -8 26.36 -8 25 C-8.89203125 24.66226563 -9.7840625 24.32453125 -10.703125 23.9765625 C-12.45882813 23.30753906 -12.45882813 23.30753906 -14.25 22.625 C-15.41015625 22.18414062 -16.5703125 21.74328125 -17.765625 21.2890625 C-20.26209781 20.29409145 -22.62904947 19.25589954 -25 18 C-25 17.34 -25 16.68 -25 16 C-25.66 16 -26.32 16 -27 16 C-28.7000159 11.61574847 -29.24845626 9.87690444 -27.9375 5.25 C-25.54363674 1.23448743 -23.45967405 -0.06702019 -19.1875 -1.6875 C-12.37898433 -2.6601451 -6.59888907 -1.64972227 0 0 Z " fill="#33625A" transform="translate(355,225)"/>
<path d="M0 0 C0.04241723 2.33294775 0.04092937 4.66702567 0 7 C-0.33 7.33 -0.66 7.66 -1 8 C-6.61 8 -12.22 8 -18 8 C-18 22.19 -18 36.38 -18 51 C-20.97 51 -23.94 51 -27 51 C-27 36.81 -27 22.62 -27 8 C-32.61 8 -38.22 8 -44 8 C-44.33 5.36 -44.66 2.72 -45 0 C-39.07365273 -0.1675655 -33.14717308 -0.32813049 -27.22045898 -0.48217773 C-25.20380535 -0.53558505 -23.18720165 -0.59091343 -21.1706543 -0.64819336 C-18.27403531 -0.73013953 -15.37730769 -0.80520145 -12.48046875 -0.87890625 C-11.57725388 -0.90594131 -10.674039 -0.93297638 -9.74345398 -0.96083069 C-8.90280899 -0.98092697 -8.062164 -1.00102325 -7.19604492 -1.02172852 C-6.45658127 -1.04171402 -5.71711761 -1.06169952 -4.95524597 -1.08229065 C-3 -1 -3 -1 0 0 Z " fill="#1A5549" transform="translate(149,212)"/>
<path d="M0 0 C2.64 0 5.28 0 8 0 C11.07285293 5.71983072 13.08811618 11.15824713 14.6875 17.4375 C15.62683931 22.62531272 15.62683931 22.62531272 18 27 C18.20157715 26.39526855 18.4031543 25.79053711 18.61083984 25.16748047 C21.40722656 16.77832031 24.20361328 8.38916016 27 0 C29.97 0 32.94 0 36 0 C34.29621858 9.17420764 31.74646067 17.85570627 28.76171875 26.68359375 C27.42029688 30.76289206 26.21789012 34.88237149 25 39 C20.38 39 15.76 39 11 39 C9.75380181 35.14088833 8.50833183 31.28155269 7.26464844 27.42163086 C6.84221313 26.11127524 6.41936948 24.80105118 5.99609375 23.4909668 C5.38431613 21.59719762 4.77417657 19.70289953 4.1640625 17.80859375 C3.79748535 16.67220459 3.4309082 15.53581543 3.05322266 14.36499023 C0 4.61010663 0 4.61010663 0 0 Z " fill="#20594E" transform="translate(220,224)"/>
<path d="M0 0 C0 2.97 0 5.94 0 9 C-4.75 8.125 -4.75 8.125 -7 7 C-8.87056791 6.7724985 -10.74685958 6.59037189 -12.625 6.4375 C-13.62789063 6.35371094 -14.63078125 6.26992187 -15.6640625 6.18359375 C-16.82035156 6.09271484 -16.82035156 6.09271484 -18 6 C-18 6.66 -18 7.32 -18 8 C-18.66 8 -19.32 8 -20 8 C-20 17.57 -20 27.14 -20 37 C-22.97 37 -25.94 37 -29 37 C-29 25.45 -29 13.9 -29 2 C-18.93272328 -2.47434521 -10.4084033 -5.20420165 0 0 Z " fill="#175246" transform="translate(325,226)"/>
<path d="M0 0 C3.96952138 3.582251 5.37905256 6.56974933 5.9375 11.875 C5.53275901 15.58512574 4.88112003 17.41422496 2.5625 20.3125 C-0.71736812 22.42830778 -3.33369588 22.52925724 -7.1875 22.4375 C-8.17234375 22.41945312 -9.1571875 22.40140625 -10.171875 22.3828125 C-10.91953125 22.35960937 -11.6671875 22.33640625 -12.4375 22.3125 C-12.4375 21.9825 -12.4375 21.6525 -12.4375 21.3125 C-9.7975 21.3125 -7.1575 21.3125 -4.4375 21.3125 C-4.9325 18.8375 -4.9325 18.8375 -5.4375 16.3125 C-6.49710937 16.26351562 -7.55671875 16.21453125 -8.6484375 16.1640625 C-10.03648497 16.08903291 -11.42450451 16.01348515 -12.8125 15.9375 C-13.51117188 15.9065625 -14.20984375 15.875625 -14.9296875 15.84375 C-20.2109375 15.5390625 -20.2109375 15.5390625 -22.4375 13.3125 C-22.0625 9.6875 -22.0625 9.6875 -21.4375 6.3125 C-22.4275 5.9825 -23.4175 5.6525 -24.4375 5.3125 C-24.4375 6.6325 -24.4375 7.9525 -24.4375 9.3125 C-25.4275 9.3125 -26.4175 9.3125 -27.4375 9.3125 C-26.03532685 4.85103997 -24.0479075 2.28105728 -20.4375 -0.6875 C-13.58693366 -3.64264626 -6.63291853 -3.25616001 0 0 Z M-18 8.625 C-19.67332613 11.24542627 -19.67332613 11.24542627 -19.4375 14.3125 C-14.4875 14.3125 -9.5375 14.3125 -4.4375 14.3125 C-4.4375 12.3325 -4.4375 10.3525 -4.4375 8.3125 C-6.81875912 5.93124088 -7.54457538 5.96728359 -10.8125 5.875 C-14.48386134 5.94594418 -15.14927751 6.05239678 -18 8.625 Z " fill="#285D53" transform="translate(285.4375,225.6875)"/>
<path d="M0 0 C2.93644672 2.49153055 4.36530566 5.35561133 6.0625 8.75 C6.046875 11.02734375 6.046875 11.02734375 5.8125 13.6875 C5.74546875 14.56277344 5.6784375 15.43804687 5.609375 16.33984375 C4.9807356 19.11034739 4.30221157 20.04888574 2.0625 21.75 C-0.53007669 22.61419223 -2.27787707 22.92580932 -4.94921875 23.06640625 C-5.70654297 23.10830078 -6.46386719 23.15019531 -7.24414062 23.19335938 C-8.42266602 23.25233398 -8.42266602 23.25233398 -9.625 23.3125 C-10.82092773 23.37727539 -10.82092773 23.37727539 -12.04101562 23.44335938 C-14.00631447 23.54927368 -15.97188496 23.65012551 -17.9375 23.75 C-17.9375 24.41 -17.9375 25.07 -17.9375 25.75 C-18.9275 25.42 -19.9175 25.09 -20.9375 24.75 C-20.9375 23.43 -20.9375 22.11 -20.9375 20.75 C-17.81569599 19.78338637 -15.41666205 19.76011091 -12.1875 20.1875 C-11.38828125 20.28933594 -10.5890625 20.39117187 -9.765625 20.49609375 C-8.86070312 20.62177734 -8.86070312 20.62177734 -7.9375 20.75 C-7.6075 19.76 -7.2775 18.77 -6.9375 17.75 C-8.11119141 17.67652344 -8.11119141 17.67652344 -9.30859375 17.6015625 C-10.32050781 17.52679688 -11.33242188 17.45203125 -12.375 17.375 C-13.38433594 17.30539063 -14.39367187 17.23578125 -15.43359375 17.1640625 C-16.25988281 17.02742188 -17.08617187 16.89078125 -17.9375 16.75 C-18.2675 16.09 -18.5975 15.43 -18.9375 14.75 C-13.9875 14.75 -9.0375 14.75 -3.9375 14.75 C-4.25938877 9.23436516 -4.25938877 9.23436516 -5.9375 7.75 C-7.3930937 7.65141397 -8.85357919 7.62027857 -10.3125 7.625 C-11.49972656 7.62113281 -11.49972656 7.62113281 -12.7109375 7.6171875 C-15.11093496 7.66382334 -15.11093496 7.66382334 -17.9375 8.75 C-16.9375 5.75 -16.9375 5.75 -14.875 4.5625 C-11.08274878 3.51357945 -7.86687998 3.61680068 -3.9375 3.75 C-4.5975 2.76 -5.2575 1.77 -5.9375 0.75 C-9.06307959 0.38469768 -9.06307959 0.38469768 -12.5625 0.5625 C-13.75101562 0.58957031 -14.93953125 0.61664063 -16.1640625 0.64453125 C-17.07929688 0.67933594 -17.99453125 0.71414062 -18.9375 0.75 C-19.5975 2.4 -20.2575 4.05 -20.9375 5.75 C-21.5975 5.75 -22.2575 5.75 -22.9375 5.75 C-23.246875 6.719375 -23.55625 7.68875 -23.875 8.6875 C-24.9375 11.75 -24.9375 11.75 -25.9375 12.75 C-26.17277773 15.09987262 -26.35136417 17.45556039 -26.5 19.8125 C-26.58378906 21.10285156 -26.66757812 22.39320313 -26.75390625 23.72265625 C-26.81449219 24.72167969 -26.87507813 25.72070312 -26.9375 26.75 C-27.2675 26.75 -27.5975 26.75 -27.9375 26.75 C-28.04637507 24.06139069 -28.12520594 21.37726842 -28.1875 18.6875 C-28.22101563 17.93533203 -28.25453125 17.18316406 -28.2890625 16.40820312 C-28.38833506 10.67521283 -27.28010324 7.43794178 -23.9375 2.75 C-17.10270428 -3.09554897 -8.03724646 -3.42010488 0 0 Z " fill="#0F4F42" transform="translate(389.9375,225.25)"/>
<path d="M0 0 C0.66 0.33 1.32 0.66 2 1 C2 2.98 2 4.96 2 7 C3.32 7.33 4.64 7.66 6 8 C6 14.93 6 21.86 6 29 C2.04 29.495 2.04 29.495 -2 30 C-2 30.66 -2 31.32 -2 32 C-8.6 32 -15.2 32 -22 32 C-22 30.68 -22 29.36 -22 28 C-19.24097315 26.62048657 -16.76144747 26.69495024 -13.6875 26.5 C-9.70050583 26.24541428 -5.9001144 25.87807454 -2 25 C-2.495 20.05 -2.495 20.05 -3 15 C-6.96 15 -10.92 15 -15 15 C-12 11 -12 11 -9.80859375 10.49609375 C-8.63490234 10.46708984 -8.63490234 10.46708984 -7.4375 10.4375 C-5.10044771 10.43173189 -5.10044771 10.43173189 -3 10 C-0.64354576 7.22774618 -0.64354576 7.22774618 -1.5 4.4375 C-1.7475 3.2309375 -1.7475 3.2309375 -2 2 C-1.34 1.34 -0.68 0.68 0 0 Z " fill="#06473A" transform="translate(172,229)"/>
<path d="M0 0 C0.33 0 0.66 0 1 0 C1 13.86 1 27.72 1 42 C-1.64 42 -4.28 42 -7 42 C-7 28.8 -7 15.6 -7 2 C-3 1 -3 1 -1 2 C-0.67 1.34 -0.34 0.68 0 0 Z " fill="#04483A" transform="translate(129,220)"/>
<path d="M0 0 C2.64 0 5.28 0 8 0 C11.0116892 5.64933563 13.14113042 11.07878925 14.8125 17.25 C15.04130859 18.03890625 15.27011719 18.8278125 15.50585938 19.640625 C15.71662109 20.40375 15.92738281 21.166875 16.14453125 21.953125 C16.42840698 22.97647949 16.42840698 22.97647949 16.71801758 24.02050781 C17.03999174 26.28073854 16.68446266 27.83942884 16 30 C16 29.34 16 28.68 16 28 C15.01 28 14.02 28 13 28 C13 28.99 13 29.98 13 31 C12.68330179 33.33564933 12.35179197 35.6693782 12 38 C18.435 37.505 18.435 37.505 25 37 C25 37.66 25 38.32 25 39 C20.38 39 15.76 39 11 39 C9.75380181 35.14088833 8.50833183 31.28155269 7.26464844 27.42163086 C6.84221313 26.11127524 6.41936948 24.80105118 5.99609375 23.4909668 C5.38431613 21.59719762 4.77417657 19.70289953 4.1640625 17.80859375 C3.79748535 16.67220459 3.4309082 15.53581543 3.05322266 14.36499023 C0 4.61010663 0 4.61010663 0 0 Z " fill="#22594E" transform="translate(220,224)"/>
<path d="M0 0 C2.1875 -0.4375 2.1875 -0.4375 5 0 C8.1725174 3.19009368 10.10393745 6.59760572 11 11 C10.01 11.495 10.01 11.495 9 12 C9 12.99 9 13.98 9 15 C7.35 15.33 5.7 15.66 4 16 C4 17.32 4 18.64 4 20 C-2.84938146 22.28312715 -10.24727242 21.02434065 -17 19 C-18 18 -18 18 -18.09765625 15.93359375 C-18.08605469 15.10988281 -18.07445312 14.28617187 -18.0625 13.4375 C-18.05347656 12.61121094 -18.04445313 11.78492188 -18.03515625 10.93359375 C-18.02355469 10.29550781 -18.01195312 9.65742188 -18 9 C-17.0925 9.33 -16.185 9.66 -15.25 10 C-9.93816204 11.55521854 -4.47979305 11.16196433 1 11 C1.74957157 7.52852158 1.74957157 7.52852158 2 4 C1.01 3.67 0.02 3.34 -1 3 C-0.67 2.01 -0.34 1.02 0 0 Z " fill="#05483B" transform="translate(346,243)"/>
<path d="M0 0 C-0.33 1.65 -0.66 3.3 -1 5 C-1.66 5 -2.32 5 -3 5 C-3.33 5.99 -3.66 6.98 -4 8 C-9 6 -9 6 -11.25 4.8125 C-16.60772811 3.22953488 -21.53545884 4.35765739 -26.5625 6.5625 C-27.366875 7.036875 -28.17125 7.51125 -29 8 C-32.98066298 3.65745856 -32.98066298 3.65745856 -33.0625 0.875 C-30.86778985 -2.99801792 -27.02452858 -4.14795647 -22.9375 -5.3125 C-14.77202595 -6.93740203 -6.40934679 -5.34112233 0 0 Z " fill="#1A5448" transform="translate(216,213)"/>
<path d="M0 0 C3.0625 2.3125 3.0625 2.3125 5 5 C5.3125 8.3125 5.3125 8.3125 5 11 C3.68 11 2.36 11 1 11 C-0.231394 8.53721199 -0.07159196 6.7204945 0 4 C-0.99 4.495 -0.99 4.495 -2 5 C-1.6596875 6.3921875 -1.6596875 6.3921875 -1.3125 7.8125 C-1 11 -1 11 -2.4375 12.875 C-2.953125 13.24625 -3.46875 13.6175 -4 14 C-4.28875 13.030625 -4.5775 12.06125 -4.875 11.0625 C-5.64214682 7.89335797 -5.64214682 7.89335797 -8 7 C-15.03692952 6.68968145 -22.0673122 6.67948804 -29 8 C-29.125 4.625 -29.125 4.625 -29 1 C-22.22870688 -5.77129312 -7.84754947 -3.72982389 0 0 Z " fill="#174F44" transform="translate(173,226)"/>
<path d="M0 0 C0.99 0.33 1.98 0.66 3 1 C3 1.66 3 2.32 3 3 C5.475 3.495 5.475 3.495 8 4 C8.36923077 10.4 8.36923077 10.4 6.5 13.4375 C6.005 13.953125 5.51 14.46875 5 15 C5.495 15.515625 5.99 16.03125 6.5 16.5625 C8.49649241 19.80680017 8.21564385 22.26217334 8 26 C5.03 26.33 2.06 26.66 -1 27 C-1.68359375 24.98177083 -2.3671875 22.96354167 -3.05078125 20.9453125 C-3.96335547 18.66005095 -3.96335547 18.66005095 -7 17 C-7.99 19.97 -8.98 22.94 -10 26 C-14.05431692 27.15837626 -16.21812119 26.83691257 -20 25 C-19.67 23.02 -19.34 21.04 -19 19 C-18.7525 19.639375 -18.505 20.27875 -18.25 20.9375 C-17.17967477 23.15004327 -17.17967477 23.15004327 -15 23.875 C-14.34 23.91625 -13.68 23.9575 -13 24 C-10.53721199 21.53721199 -10.00228745 19.29323018 -9 16 C-6.69 16 -4.38 16 -2 16 C-1.67 15.34 -1.34 14.68 -1 14 C-0.01 14 0.98 14 2 14 C2.33 12.68 2.66 11.36 3 10 C3.66 10 4.32 10 5 10 C5 8.35 5 6.7 5 5 C2.525 4.505 2.525 4.505 0 4 C0 2.66666667 0 1.33333333 0 0 Z " fill="#134C41" transform="translate(205,236)"/>
<path d="M0 0 C0 2.64 0 5.28 0 8 C-5.31718268 11.35822064 -9.89871076 11.70507965 -16 11 C-20.42583586 9.90287037 -23.88744277 8.39811294 -27 5 C-26.01 4.67 -25.02 4.34 -24 4 C-23.34 3.34 -22.68 2.68 -22 2 C-18.50025838 0.72155557 -15.06295581 0.93340035 -11.375 1 C-7.24434278 1.07425901 -3.93802224 0 0 0 Z " fill="#2B6055" transform="translate(393,253)"/>
<path d="M0 0 C1.32 0.33 2.64 0.66 4 1 C3.814375 2.134375 3.62875 3.26875 3.4375 4.4375 C3.2209375 6.2009375 3.2209375 6.2009375 3 8 C4.99616554 9.99616554 8.81701963 9.40983427 11.5625 9.5625 C12.27341797 9.60568359 12.98433594 9.64886719 13.71679688 9.69335938 C15.47761912 9.79971777 17.2387832 9.90038846 19 10 C20 13 20 13 19 16 C13.72 16 8.44 16 3 16 C2.67 15.34 2.34 14.68 2 14 C0.35 14.66 -1.3 15.32 -3 16 C-3 12.04 -3 8.08 -3 4 C-2.01 4 -1.02 4 0 4 C0 2.68 0 1.36 0 0 Z " fill="#07483A" transform="translate(261,231)"/>
<path d="M0 0 C8.49609375 -0.09765625 8.49609375 -0.09765625 11 0 C12.7987958 1.7987958 12.5043904 4.43644755 12.75 6.875 C12.86859375 7.94492187 12.9871875 9.01484375 13.109375 10.1171875 C13 13 13 13 11.83984375 14.87109375 C9.37683317 16.38236776 7.68063454 16.2992455 4.8125 16.1875 C3.224375 16.125625 1.63625 16.06375 0 16 C0 10.72 0 5.44 0 0 Z M4 3 C4 3.99 4 4.98 4 6 C5.65 5.67 7.3 5.34 9 5 C9 4.34 9 3.68 9 3 C7.35 3 5.7 3 4 3 Z M4 9 C4 10.32 4 11.64 4 13 C5.32 12.67 6.64 12.34 8 12 C7.34 11.01 6.68 10.02 6 9 C5.34 9 4.68 9 4 9 Z " fill="#225449" transform="translate(121,272)"/>
<path d="M0 0 C0.99 0.33 1.98 0.66 3 1 C3.08172652 2.72836466 3.13951818 4.45786959 3.1875 6.1875 C3.22230469 7.15042969 3.25710937 8.11335937 3.29296875 9.10546875 C2.94059696 12.58690207 2.30146202 14.35331868 0 17 C-2.91796875 17.48828125 -2.91796875 17.48828125 -6.1875 17.3125 C-7.27417969 17.26738281 -8.36085937 17.22226562 -9.48046875 17.17578125 C-10.31191406 17.11777344 -11.14335937 17.05976563 -12 17 C-12 13.7 -12 10.4 -12 7 C-11.34 6.67 -10.68 6.34 -10 6 C-9.34 6.33 -8.68 6.66 -8 7 C-8 7.66 -8 8.32 -8 9 C-7.34 9 -6.68 9 -6 9 C-6 8.01 -6 7.02 -6 6 C-4.68 6 -3.36 6 -2 6 C-2 6.66 -2 7.32 -2 8 C-1.34 8 -0.68 8 0 8 C-0.2784375 6.2984375 -0.2784375 6.2984375 -0.5625 4.5625 C-0.706875 3.386875 -0.85125 2.21125 -1 1 C-0.67 0.67 -0.34 0.34 0 0 Z " fill="#09473B" transform="translate(244,245)"/>
<path d="M0 0 C7.27123785 0.61882875 13.21978457 2.90065365 19.0625 7.3125 C21.59892766 10.83077063 21.60785955 12.74498313 21 17 C19.59539303 19.87305972 18.25489001 21.74510999 16 24 C15.01 24 14.02 24 13 24 C13 23.01 13 22.02 13 21 C13.639375 20.731875 14.27875 20.46375 14.9375 20.1875 C17.33131686 19.11332248 17.33131686 19.11332248 18 16 C18.66 16 19.32 16 20 16 C19.18957164 14.51969728 18.37659652 13.04078858 17.5625 11.5625 C17.11003906 10.73878906 16.65757812 9.91507813 16.19140625 9.06640625 C15.16337603 7.07691202 15.16337603 7.07691202 14 6 C12.33382885 5.95936168 10.66611905 5.957279 9 6 C8.77390663 8.12364481 8.77390663 8.12364481 10.5 9.625 C10.995 10.07875 11.49 10.5325 12 11 C11.67 11.66 11.34 12.32 11 13 C10.31550781 12.56042969 9.63101562 12.12085938 8.92578125 11.66796875 C5.75814792 9.86212171 2.60132899 8.58837548 -0.8125 7.3125 C-1.97394531 6.87550781 -3.13539063 6.43851563 -4.33203125 5.98828125 C-5.21246094 5.66214844 -6.09289062 5.33601562 -7 5 C-6.67 4.34 -6.34 3.68 -6 3 C-3.03 3.495 -3.03 3.495 0 4 C0 2.68 0 1.36 0 0 Z " fill="#285E53" transform="translate(337,238)"/>
<path d="M0 0 C1.65 0 3.3 0 5 0 C8.15600925 4.79713406 8.17353689 8.24284065 7.6171875 13.73046875 C6.902801 16.35742162 6.13758056 17.3482332 4 19 C1.40742331 19.86419223 -0.34037707 20.17580932 -3.01171875 20.31640625 C-3.76904297 20.35830078 -4.52636719 20.40019531 -5.30664062 20.44335938 C-6.09232422 20.48267578 -6.87800781 20.52199219 -7.6875 20.5625 C-8.48478516 20.60568359 -9.28207031 20.64886719 -10.10351562 20.69335938 C-12.06881447 20.79927368 -14.03438496 20.90012551 -16 21 C-16 21.66 -16 22.32 -16 23 C-16.99 22.67 -17.98 22.34 -19 22 C-19 20.68 -19 19.36 -19 18 C-15.87819599 17.03338637 -13.47916205 17.01011091 -10.25 17.4375 C-9.45078125 17.53933594 -8.6515625 17.64117187 -7.828125 17.74609375 C-7.22484375 17.82988281 -6.6215625 17.91367188 -6 18 C-5.67 17.01 -5.34 16.02 -5 15 C-6.17369141 14.92652344 -6.17369141 14.92652344 -7.37109375 14.8515625 C-8.38300781 14.77679688 -9.39492188 14.70203125 -10.4375 14.625 C-11.44683594 14.55539063 -12.45617187 14.48578125 -13.49609375 14.4140625 C-14.32238281 14.27742187 -15.14867187 14.14078125 -16 14 C-16.33 13.34 -16.66 12.68 -17 12 C-12.05 12 -7.1 12 -2 12 C-1.67 13.65 -1.34 15.3 -1 17 C-0.01 17.33 0.98 17.66 2 18 C2.33 16.35 2.66 14.7 3 13 C3.66 13 4.32 13 5 13 C4.484375 11.9275 3.96875 10.855 3.4375 9.75 C2.36759718 7.28522388 1.96427218 6.27867697 2.3125 3.5625 C2.539375 3.046875 2.76625 2.53125 3 2 C2.01 1.34 1.02 0.68 0 0 Z " fill="#49766D" transform="translate(388,228)"/>
<path d="M0 0 C2.64 0 5.28 0 8 0 C11.04157942 5.22771463 12.50610724 8.92671312 12 15 C11.34 15 10.68 15 10 15 C9.01 17.475 9.01 17.475 8 20 C5.95233824 17.95233824 5.47617017 16.91358084 4.5625 14.25 C3.61721851 11.58777867 2.62464562 9.27709527 1.3125 6.75 C0 4 0 4 0 0 Z " fill="#104E41" transform="translate(220,224)"/>
<path d="M0 0 C12.66970387 1.55808656 12.66970387 1.55808656 18 6 C17.67 7.65 17.34 9.3 17 11 C16.34 11 15.68 11 15 11 C14.67 11.99 14.34 12.98 14 14 C9 12 9 12 4 10 C4 9.34 4 8.68 4 8 C3.01 7.34 2.02 6.68 1 6 C1.66 6 2.32 6 3 6 C2.67 5.01 2.34 4.02 2 3 C1.34 2.67 0.68 2.34 0 2 C0 1.34 0 0.68 0 0 Z " fill="#1D574B" transform="translate(198,207)"/>
<path d="M0 0 C1.14662109 -0.03867188 1.14662109 -0.03867188 2.31640625 -0.078125 C4.93473244 0.32691994 5.78268701 1.24096187 7.4375 3.25 C7.1075 3.91 6.7775 4.57 6.4375 5.25 C5.220625 5.20875 4.00375 5.1675 2.75 5.125 C-0.77550624 5.1375018 -3.47686592 5.37991874 -6.5625 7.25 C-7.22429847 9.23045559 -7.22429847 9.23045559 -7.5625 11.25 C-8.5525 11.91 -9.5425 12.57 -10.5625 13.25 C-13.32240436 15.56831966 -14.3745247 17.86883953 -15.5625 21.25 C-15.8925 21.25 -16.2225 21.25 -16.5625 21.25 C-16.83864086 15.81922978 -16.88695447 12.77125808 -13.5625 8.25 C-13.2325 7.59 -12.9025 6.93 -12.5625 6.25 C-11.9025 6.25 -11.2425 6.25 -10.5625 6.25 C-10.315 5.445625 -10.0675 4.64125 -9.8125 3.8125 C-8.5625 1.25 -8.5625 1.25 -6.76953125 0.60546875 C-4.48802821 0.23800543 -2.31066434 0.04691704 0 0 Z " fill="#05483B" transform="translate(379.5625,224.75)"/>
<path d="M0 0 C6.24460432 -0.60044272 6.24460432 -0.60044272 9.4375 1.9375 C11.53622409 6.05099921 11.35515259 9.47180448 11 14 C10.34 14 9.68 14 9 14 C8.67 14.99 8.34 15.98 8 17 C7.34 16.34 6.68 15.68 6 15 C4.68 15 3.36 15 2 15 C1.80508548 13.54263913 1.61930642 12.08405407 1.4375 10.625 C1.33308594 9.81289062 1.22867187 9.00078125 1.12109375 8.1640625 C1 6 1 6 2 4 C0.68 3.67 -0.64 3.34 -2 3 C-1.34 2.34 -0.68 1.68 0 1 C0 0.67 0 0.34 0 0 Z " fill="#1A5047" transform="translate(279,226)"/>
<path d="M0 0 C0 2.97 0 5.94 0 9 C-4.75 8.125 -4.75 8.125 -7 7 C-8.87056791 6.7724985 -10.74685958 6.59037189 -12.625 6.4375 C-13.62789063 6.35371094 -14.63078125 6.26992187 -15.6640625 6.18359375 C-16.82035156 6.09271484 -16.82035156 6.09271484 -18 6 C-18.33 6.66 -18.66 7.32 -19 8 C-19 6.68 -19 5.36 -19 4 C-16.36 3.67 -13.72 3.34 -11 3 C-10.67 2.01 -10.34 1.02 -10 0 C-9.01 -0.33 -8.02 -0.66 -7 -1 C-14.92 -0.505 -14.92 -0.505 -23 0 C-16.26726965 -4.4884869 -7.10465935 -3.55232968 0 0 Z " fill="#376960" transform="translate(325,226)"/>
<path d="M0 0 C2.4375 0.4375 2.4375 0.4375 4.25 1.4375 C6.22337049 4.76107135 5.74062838 7.61808245 5.4375 11.4375 C3.4375 13.4375 3.4375 13.4375 0 13.8125 C-3.5625 13.4375 -3.5625 13.4375 -5.5 11.75 C-6.77554072 8.97382314 -7.09076174 7.4561385 -6.5625 4.4375 C-4.53830677 1.66360557 -3.41064923 0.58230597 0 0 Z M-0.5625 8.4375 C-0.8925 9.0975 -1.2225 9.7575 -1.5625 10.4375 C-0.9025 10.4375 -0.2425 10.4375 0.4375 10.4375 C0.1075 9.7775 -0.2225 9.1175 -0.5625 8.4375 Z " fill="#2F685F" transform="translate(196.5625,274.5625)"/>
<path d="M0 0 C0.33 1.32 0.66 2.64 1 4 C-3 4 -3 4 -6 3 C-6 3.66 -6 4.32 -6 5 C-6.99 5 -7.98 5 -9 5 C-8.34 6.98 -7.68 8.96 -7 11 C-5.68 11 -4.36 11 -3 11 C-1.68 11 -0.36 11 1 11 C0.625 12.9375 0.625 12.9375 0 15 C-2.84083641 16.42041821 -4.85477278 16.31452272 -8 16 C-11.23062308 13.81714657 -11.90767139 12.33853825 -12.9375 8.5625 C-13.00742102 4.57700208 -12.56868015 3.01155604 -10 0 C-6.64274068 -1.62074588 -3.54995491 -0.72612714 0 0 Z " fill="#305F52" transform="translate(254,272)"/>
<path d="M0 0 C0.33 3.96 0.66 7.92 1 12 C-7.75 12.125 -7.75 12.125 -10 11 C-10 7.37 -10 3.74 -10 0 C-6.30581799 -1.231394 -3.7943739 -0.64432764 0 0 Z M-6 6 C-6 6.99 -6 7.98 -6 9 C-5.34 8.67 -4.68 8.34 -4 8 C-4.66 7.34 -5.32 6.68 -6 6 Z " fill="#366760" transform="translate(349,276)"/>
<path d="M0 0 C0.33 0 0.66 0 1 0 C1.84098656 4.01804691 2.05404945 7.01803543 1 11 C2.98 10.01 4.96 9.02 7 8 C7 8.99 7 9.98 7 11 C14.92 10.505 14.92 10.505 23 10 C23 10.33 23 10.66 23 11 C18.38 11.33 13.76 11.66 9 12 C9.66 14.97 10.32 17.94 11 21 C9.68 21.33 8.36 21.66 7 22 C6.34 21.34 5.68 20.68 5 20 C4.01 20 3.02 20 2 20 C-0.1103435 15.72115394 -0.24128739 11.86135858 -0.125 7.1875 C-0.11597656 6.49462891 -0.10695313 5.80175781 -0.09765625 5.08789062 C-0.07426157 3.39177605 -0.03839641 1.69584129 0 0 Z " fill="#1D564B" transform="translate(257,236)"/>
<path d="M0 0 C0.26554688 0.54269531 0.53109375 1.08539063 0.8046875 1.64453125 C1.15789062 2.35996094 1.51109375 3.07539063 1.875 3.8125 C2.39707031 4.87404297 2.39707031 4.87404297 2.9296875 5.95703125 C4.0656486 8.21246418 4.0656486 8.21246418 6 11 C5.071875 10.938125 4.14375 10.87625 3.1875 10.8125 C0.01604897 10.69105736 0.01604897 10.69105736 -1.875 12.5 C-2.24625 12.995 -2.6175 13.49 -3 14 C-6.52387645 9.88881081 -9 6.53491888 -9 1 C-5.92677456 0.08941469 -3.19902639 -0.08886184 0 0 Z " fill="#195447" transform="translate(194,224)"/>
<path d="M0 0 C0.94552734 0.16242188 0.94552734 0.16242188 1.91015625 0.328125 C4.11929625 3.641835 4.13497178 4.6727271 4.03515625 8.515625 C4.01710938 9.41667969 3.9990625 10.31773437 3.98046875 11.24609375 C3.94566406 12.27669922 3.94566406 12.27669922 3.91015625 13.328125 C2.59015625 12.998125 1.27015625 12.668125 -0.08984375 12.328125 C-0.21359375 11.35875 -0.33734375 10.389375 -0.46484375 9.390625 C-0.77421875 7.8746875 -0.77421875 7.8746875 -1.08984375 6.328125 C-1.74984375 5.998125 -2.40984375 5.668125 -3.08984375 5.328125 C-3.08984375 7.968125 -3.08984375 10.608125 -3.08984375 13.328125 C-4.40984375 13.328125 -5.72984375 13.328125 -7.08984375 13.328125 C-7.11670928 11.34903102 -7.1361775 9.36983529 -7.15234375 7.390625 C-7.16394531 6.28847656 -7.17554688 5.18632812 -7.1875 4.05078125 C-7.0076047 -0.96469975 -4.45470181 0.16169517 0 0 Z " fill="#3D665C" transform="translate(361.08984375,274.671875)"/>
<path d="M0 0 C6.05503233 -0.22018299 11.11840613 0.52960153 17 2 C17 4.97 17 7.94 17 11 C14.03 10.505 14.03 10.505 11 10 C11 9.34 11 8.68 11 8 C7.7 8 4.4 8 1 8 C1.33 7.34 1.66 6.68 2 6 C2.66 6 3.32 6 4 6 C4 4.68 4 3.36 4 2 C2.68 1.34 1.36 0.68 0 0 Z " fill="#2C5F56" transform="translate(338,223)"/>
<path d="M0 0 C0 0.66 0 1.32 0 2 C0.66 2 1.32 2 2 2 C2.21691118 5.18136394 2.25066255 7.43969547 0.9375 10.375 C-1 12 -1 12 -4.5625 12.4375 C-5.696875 12.293125 -6.83125 12.14875 -8 12 C-10.46943529 8.29584707 -10.46913089 6.37855495 -10 2 C-6.98160349 -1.71494955 -4.37763951 -1.09440988 0 0 Z M-6 3 C-6.33 4.32 -6.66 5.64 -7 7 C-5.35 7 -3.7 7 -2 7 C-2 6.01 -2 5.02 -2 4 C-3.32 3.67 -4.64 3.34 -6 3 Z " fill="#486B64" transform="translate(269,276)"/>
<path d="M0 0 C0.94552734 0.16242188 0.94552734 0.16242188 1.91015625 0.328125 C4.11929625 3.641835 4.13497178 4.6727271 4.03515625 8.515625 C4.01710938 9.41667969 3.9990625 10.31773437 3.98046875 11.24609375 C3.94566406 12.27669922 3.94566406 12.27669922 3.91015625 13.328125 C2.59015625 13.328125 1.27015625 13.328125 -0.08984375 13.328125 C-0.41984375 11.018125 -0.74984375 8.708125 -1.08984375 6.328125 C-3.44937469 8.68765594 -3.58125788 10.10708117 -4.08984375 13.328125 C-5.07984375 13.328125 -6.06984375 13.328125 -7.08984375 13.328125 C-7.11670928 11.34903102 -7.1361775 9.36983529 -7.15234375 7.390625 C-7.16394531 6.28847656 -7.17554688 5.18632812 -7.1875 4.05078125 C-7.0076047 -0.96469975 -4.45470181 0.16169517 0 0 Z " fill="#235446" transform="translate(282.08984375,274.671875)"/>
<path d="M0 0 C1.8125 2 1.8125 2 3 4 C1.03177114 5.96822886 -2.34808709 5.66248381 -5 6 C-4.13375 6.185625 -4.13375 6.185625 -3.25 6.375 C-0.97664233 7.00648824 0.9253529 7.88858191 3 9 C2.34 10.32 1.68 11.64 1 13 C-5.34507042 13.35915493 -5.34507042 13.35915493 -7.9375 11.9375 C-9.63335287 8.84506242 -9.43060657 6.44485259 -9 3 C-6.37083783 -0.01866768 -3.91948001 -0.70349641 0 0 Z " fill="#2E6A64" transform="translate(378,275)"/>
<path d="M0 0 C0.99 0.33 1.98 0.66 3 1 C3.33 4.96 3.66 8.92 4 13 C2.39125 13.04125 0.7825 13.0825 -0.875 13.125 C-1.77992188 13.14820313 -2.68484375 13.17140625 -3.6171875 13.1953125 C-6 13 -6 13 -8 11 C-8.1953125 8.6171875 -8.1953125 8.6171875 -8.125 5.875 C-8.10695312 4.96492188 -8.08890625 4.05484375 -8.0703125 3.1171875 C-8.04710937 2.41851562 -8.02390625 1.71984375 -8 1 C-6.68 1 -5.36 1 -4 1 C-3.67 2.98 -3.34 4.96 -3 7 C-2.01 7 -1.02 7 0 7 C0 4.69 0 2.38 0 0 Z " fill="#547C71" transform="translate(146,275)"/>
<path d="M0 0 C0.66 0.33 1.32 0.66 2 1 C2 3.31 2 5.62 2 8 C3.32 8 4.64 8 6 8 C6 5.69 6 3.38 6 1 C7.32 1 8.64 1 10 1 C10.33 4.63 10.66 8.26 11 12 C7.0526448 12.78947104 3.95712151 13.09202608 0 13 C-1.25069801 10.49860398 -1.13302467 8.72607309 -1.125 5.9375 C-1.12757813 5.03902344 -1.13015625 4.14054687 -1.1328125 3.21484375 C-1 1 -1 1 0 0 Z " fill="#4D7E72" transform="translate(305,275)"/>
<path d="M0 0 C0.94875 0.309375 1.8975 0.61875 2.875 0.9375 C7.50938425 2.27928271 12.20552041 2.63342007 17 3 C17 3.33 17 3.66 17 4 C11.555 4.495 11.555 4.495 6 5 C6 5.99 6 6.98 6 8 C7.60681641 8.07347656 7.60681641 8.07347656 9.24609375 8.1484375 C10.64325639 8.22345294 12.0403905 8.2990013 13.4375 8.375 C14.14455078 8.4059375 14.85160156 8.436875 15.58007812 8.46875 C17.39239188 8.57280629 19.19817988 8.77919892 21 9 C21.33 9.66 21.66 10.32 22 11 C15.15061854 13.28312715 7.75272758 12.02434065 1 10 C0 9 0 9 -0.09765625 6.93359375 C-0.08605469 6.10988281 -0.07445312 5.28617187 -0.0625 4.4375 C-0.05347656 3.61121094 -0.04445313 2.78492188 -0.03515625 1.93359375 C-0.02355469 1.29550781 -0.01195312 0.65742188 0 0 Z " fill="#265C50" transform="translate(328,252)"/>
<path d="M0 0 C0.33 0.66 0.66 1.32 1 2 C0.67 2.99 0.34 3.98 0 5 C0.20625 5.66 0.4125 6.32 0.625 7 C1 9 1 9 0 10.75 C-2.96672303 12.6042019 -5.58497041 12.19330356 -9 12 C-9.33 10.68 -9.66 9.36 -10 8 C-7 8 -7 8 -4 9 C-4 8.34 -4 7.68 -4 7 C-5.65 6.67 -7.3 6.34 -9 6 C-10 3 -10 3 -9 0 C-5.88173308 -1.55913346 -3.32926126 -0.66585225 0 0 Z " fill="#49726A" transform="translate(300,276)"/>
<path d="M0 0 C0.928125 0.20625 1.85625 0.4125 2.8125 0.625 C4.18134358 5.14218381 3.28325246 8.21274263 1.8125 12.625 C-1.5625 12.8125 -1.5625 12.8125 -5.1875 12.625 C-5.8475 11.635 -6.5075 10.645 -7.1875 9.625 C-6.8575 8.965 -6.5275 8.305 -6.1875 7.625 C-5.5275 7.625 -4.8675 7.625 -4.1875 7.625 C-4.5175 7.295 -4.8475 6.965 -5.1875 6.625 C-5.55192233 4.96485384 -5.88722883 3.29793936 -6.1875 1.625 C-3.1875 -0.375 -3.1875 -0.375 0 0 Z " fill="#19443D" transform="translate(212.1875,275.375)"/>
<path d="M0 0 C0.02687279 1.81242052 0.04633715 3.62495233 0.0625 5.4375 C0.07410156 6.44683594 0.08570313 7.45617187 0.09765625 8.49609375 C0 11 0 11 -1 12 C-7.52542373 12.23728814 -7.52542373 12.23728814 -10 11 C-9.67 9.68 -9.34 8.36 -9 7 C-7.02 7.66 -5.04 8.32 -3 9 C-3 8.34 -3 7.68 -3 7 C-5.97 6.505 -5.97 6.505 -9 6 C-9.6875 4.1875 -9.6875 4.1875 -10 2 C-7.63939534 -2.27859594 -4.19472714 -0.87060375 0 0 Z " fill="#4B7770" transform="translate(163,276)"/>
<path d="M0 0 C3.4914117 0.05023614 4.22700674 0.3587131 7.25 2.5 C9.54742742 5.80255191 9.70761159 7.4395403 9.25 11.375 C7.93 11.375 6.61 11.375 5.25 11.375 C4.018606 8.91221199 4.17840804 7.0954945 4.25 4.375 C3.26 4.87 3.26 4.87 2.25 5.375 C2.5903125 6.7671875 2.5903125 6.7671875 2.9375 8.1875 C3.25 11.375 3.25 11.375 1.8125 13.25 C1.296875 13.62125 0.78125 13.9925 0.25 14.375 C-0.03875 13.405625 -0.3275 12.43625 -0.625 11.4375 C-1.39214682 8.26835797 -1.39214682 8.26835797 -3.75 7.375 C-4.4375 4.375 -4.4375 4.375 -4.75 1.375 C-3.75 0.375 -3.75 0.375 0 0 Z " fill="#08483C" transform="translate(168.75,225.625)"/>
<path d="M0 0 C1.65 1.32 3.3 2.64 5 4 C5.33 3.01 5.66 2.02 6 1 C6.99 0.67 7.98 0.34 9 0 C10.30230734 3.00646952 9.96485975 4.09355667 8.78515625 7.234375 C8.21667969 8.39453125 7.64820313 9.5546875 7.0625 10.75 C6.49660156 11.92046875 5.93070312 13.0909375 5.34765625 14.296875 C4.90292969 15.18890625 4.45820313 16.0809375 4 17 C2.68 17 1.36 17 0 17 C0 16.01 0 15.02 0 14 C0.66 14 1.32 14 2 14 C1.77183594 13.40832031 1.54367187 12.81664062 1.30859375 12.20703125 C-1.54657293 4.35852373 -1.54657293 4.35852373 0 0 Z " fill="#1C5445" transform="translate(385,275)"/>
<path d="M0 0 C0.02698189 1.62490954 0.04638757 3.24994633 0.0625 4.875 C0.07410156 5.77992188 0.08570313 6.68484375 0.09765625 7.6171875 C0 10 0 10 -1 12 C-3.64 12 -6.28 12 -9 12 C-9.33 11.01 -9.66 10.02 -10 9 C-9.67 8.34 -9.34 7.68 -9 7 C-8.34 7 -7.68 7 -7 7 C-7 7.66 -7 8.32 -7 9 C-6.34 8.67 -5.68 8.34 -5 8 C-5.639375 7.773125 -6.27875 7.54625 -6.9375 7.3125 C-9 6 -9 6 -9.75 3.375 C-9.8325 2.59125 -9.915 1.8075 -10 1 C-6.1496895 -1.56687367 -4.41430237 -0.83288724 0 0 Z M-4 2 C-4 2.66 -4 3.32 -4 4 C-3.34 3.67 -2.68 3.34 -2 3 C-2.66 2.67 -3.32 2.34 -4 2 Z " fill="#365F57" transform="translate(229,276)"/>
<path d="M0 0 C-0.92941406 0.04898438 -1.85882813 0.09796875 -2.81640625 0.1484375 C-13.80163642 0.15974577 -13.80163642 0.15974577 -22.9375 5.125 C-23.288125 5.74375 -23.63875 6.3625 -24 7 C-24.66 6.67 -25.32 6.34 -26 6 C-25.855625 6.59167969 -25.71125 7.18335938 -25.5625 7.79296875 C-24.59177306 11.92529941 -23.72406298 15.7229762 -24 20 C-26.65221327 17.73486651 -27.47598796 16.20810438 -27.875 12.75 C-28.23838129 7.89964967 -27.63548875 5.11795117 -25 1 C-18.75044453 -3.4030959 -6.34627757 -4.23085171 0 0 Z " fill="#406861" transform="translate(168,240)"/>
<path d="M0 0 C0.33 0 0.66 0 1 0 C1 7.59 1 15.18 1 23 C-6.53424625 26.76712313 -15.42830361 29.55091005 -24 28 C-26.2578125 26.48046875 -26.2578125 26.48046875 -28 25 C-25.22949974 24.8053162 -22.45886998 24.61897208 -19.6875 24.4375 C-18.90181641 24.38142578 -18.11613281 24.32535156 -17.30664062 24.26757812 C-16.1706543 24.19506836 -16.1706543 24.19506836 -15.01171875 24.12109375 C-14.31522217 24.0739624 -13.61872559 24.02683105 -12.90112305 23.97827148 C-11 24 -11 24 -8 25 C-8 24.34 -8 23.68 -8 23 C-6 22 -6 22 0 22 C0 14.74 0 7.48 0 0 Z " fill="#486E66" transform="translate(178,236)"/>
<path d="M0 0 C1 1 1 1 1.09765625 3.50390625 C1.08605469 4.51324219 1.07445312 5.52257812 1.0625 6.5625 C1.05347656 7.57441406 1.04445312 8.58632813 1.03515625 9.62890625 C1.02355469 10.41136719 1.01195312 11.19382812 1 12 C0.01 12 -0.98 12 -2 12 C-2 9.36 -2 6.72 -2 4 C-3.32 4.33 -4.64 4.66 -6 5 C-6 7.31 -6 9.62 -6 12 C-6.99 12 -7.98 12 -9 12 C-9 8.04 -9 4.08 -9 0 C-5.16046631 -0.95988342 -3.67125527 -0.99223115 0 0 Z " fill="#295C4D" transform="translate(185,276)"/>
<path d="M0 0 C0.845625 0.07863281 1.69125 0.15726563 2.5625 0.23828125 C5.0319976 0.69339699 6.82618768 1.45466662 9 2.6875 C9 3.0175 9 3.3475 9 3.6875 C7.00045254 3.73004356 4.99958364 3.72830783 3 3.6875 C2.67 3.3575 2.34 3.0275 2 2.6875 C-0.18639453 2.61491054 -2.37500389 2.60376217 -4.5625 2.625 C-5.76003906 2.63402344 -6.95757812 2.64304688 -8.19140625 2.65234375 C-9.58166016 2.66974609 -9.58166016 2.66974609 -11 2.6875 C-11.66 4.3375 -12.32 5.9875 -13 7.6875 C-13.66 7.6875 -14.32 7.6875 -15 7.6875 C-15.309375 8.656875 -15.61875 9.62625 -15.9375 10.625 C-17 13.6875 -17 13.6875 -18 14.6875 C-18.23527773 17.03737262 -18.41386417 19.39306039 -18.5625 21.75 C-18.64628906 23.04035156 -18.73007812 24.33070313 -18.81640625 25.66015625 C-18.87699219 26.65917969 -18.93757813 27.65820312 -19 28.6875 C-19.33 28.6875 -19.66 28.6875 -20 28.6875 C-20.10887507 25.99889069 -20.18770594 23.31476842 -20.25 20.625 C-20.28351563 19.87283203 -20.31703125 19.12066406 -20.3515625 18.34570312 C-20.45083506 12.61271283 -19.34260324 9.37544178 -16 4.6875 C-11.29090147 0.65998152 -6.02707164 -0.61556982 0 0 Z " fill="#547D75" transform="translate(382,223.3125)"/>
<path d="M0 0 C5.61 0 11.22 0 17 0 C18.60725635 3.21451269 18.05748185 6.43612536 18 10 C17.67 10 17.34 10 17 10 C17 7.69 17 5.38 17 3 C14.37493198 2.97309156 11.75013827 2.95320596 9.125 2.9375 C8.37863281 2.92912109 7.63226563 2.92074219 6.86328125 2.91210938 C2.80154422 2.79311916 2.80154422 2.79311916 -1 4 C-1.042721 5.66611905 -1.04063832 7.33382885 -1 9 C0.87824891 10.87824891 4.03935276 10.39102397 6.5625 10.5625 C7.76003906 10.64628906 8.95757812 10.73007813 10.19140625 10.81640625 C11.11824219 10.87699219 12.04507813 10.93757812 13 11 C13 11.33 13 11.66 13 12 C10.70954632 12.22127098 8.41755236 12.4266504 6.125 12.625 C4.84882813 12.74101562 3.57265625 12.85703125 2.2578125 12.9765625 C1.18273437 12.98429687 0.10765625 12.99203125 -1 13 C-1.66 12.34 -2.32 11.68 -3 11 C-3.33 11 -3.66 11 -4 11 C-4.66 8.36 -5.32 5.72 -6 3 C-4.02 2.67 -2.04 2.34 0 2 C0 1.34 0 0.68 0 0 Z " fill="#648C85" transform="translate(152,244)"/>
<path d="M0 0 C0.33 0 0.66 0 1 0 C1.29254918 4.97333608 1.16504232 8.0436971 -2 12 C-5.27986812 14.11580778 -7.89619588 14.21675724 -11.75 14.125 C-12.73484375 14.10695312 -13.7196875 14.08890625 -14.734375 14.0703125 C-15.85585938 14.03550781 -15.85585938 14.03550781 -17 14 C-17 13.67 -17 13.34 -17 13 C-14.36 13 -11.72 13 -9 13 C-9.33 11.35 -9.66 9.7 -10 8 C-16.93 7.505 -16.93 7.505 -24 7 C-24 6.67 -24 6.34 -24 6 C-16.08 6 -8.16 6 0 6 C0 4.02 0 2.04 0 0 Z " fill="#4B7D73" transform="translate(290,234)"/>
<path d="M0 0 C0.33 0 0.66 0 1 0 C1 13.86 1 27.72 1 42 C-1.64 42 -4.28 42 -7 42 C-7 32.1 -7 22.2 -7 12 C-6.67 12 -6.34 12 -6 12 C-6 21.24 -6 30.48 -6 40 C-3.03 39.505 -3.03 39.505 0 39 C0 26.13 0 13.26 0 0 Z " fill="#0C4236" transform="translate(129,220)"/>
<path d="M0 0 C1.32 0 2.64 0 4 0 C6.42857143 6.28571429 6.42857143 6.28571429 5 10 C5.66 10.33 6.32 10.66 7 11 C7 12.65 7 14.3 7 16 C5.02 16 3.04 16 1 16 C1 12.7 1 9.4 1 6 C0.34 6 -0.32 6 -1 6 C-1.042721 4.33388095 -1.04063832 2.66617115 -1 1 C-0.67 0.67 -0.34 0.34 0 0 Z " fill="#11493C" transform="translate(329,272)"/>
<path d="M0 0 C1.50433594 0.01353516 1.50433594 0.01353516 3.0390625 0.02734375 C3.80992187 0.03894531 4.58078125 0.05054688 5.375 0.0625 C5.705 1.7125 6.035 3.3625 6.375 5.0625 C3.06235796 7.27092803 2.54048604 7.25975756 -1.1875 6.75 C-1.97253906 6.65074219 -2.75757813 6.55148437 -3.56640625 6.44921875 C-5.625 6.0625 -5.625 6.0625 -7.625 5.0625 C-7.625 3.7425 -7.625 2.4225 -7.625 1.0625 C-4.98041621 -0.25979189 -2.94738699 -0.03427194 0 0 Z " fill="#08463B" transform="translate(277.625,255.9375)"/>
<path d="M0 0 C1.65 0 3.3 0 5 0 C8.15600925 4.79713406 8.17353689 8.24284065 7.6171875 13.73046875 C6.91065077 16.32855635 6.124641 17.37745078 4 19 C3.34 19 2.68 19 2 19 C2.33 17.02 2.66 15.04 3 13 C3.66 13 4.32 13 5 13 C4.484375 11.9275 3.96875 10.855 3.4375 9.75 C2.36759718 7.28522388 1.96427218 6.27867697 2.3125 3.5625 C2.6528125 2.7890625 2.6528125 2.7890625 3 2 C2.01 1.34 1.02 0.68 0 0 Z " fill="#427167" transform="translate(388,228)"/>
<path d="M0 0 C1.98 0 3.96 0 6 0 C7 2 8 4 9 6 C8.67 6.99 8.34 7.98 8 9 C7.01 9 6.02 9 5 9 C5 10.32 5 11.64 5 13 C4.34 13 3.68 13 3 13 C3.33 11.02 3.66 9.04 4 7 C3.01 6.67 2.02 6.34 1 6 C1.33 5.34 1.66 4.68 2 4 C0.68 3.67 -0.64 3.34 -2 3 C-1.34 2.34 -0.68 1.68 0 1 C0 0.67 0 0.34 0 0 Z " fill="#07473B" transform="translate(279,226)"/>
<path d="M0 0 C2.56864728 1.28432364 2.946539 2.36634751 4 5 C4 7.66666667 4 10.33333333 4 13 C4.66 13.33 5.32 13.66 6 14 C0.25 13.25 0.25 13.25 -2 11 C-2.39764263 9.01178687 -2.73775349 7.01055661 -3 5 C-2.34 5 -1.68 5 -1 5 C-0.67 3.35 -0.34 1.7 0 0 Z " fill="#175246" transform="translate(146,249)"/>
<path d="M0 0 C0.99 0.33 1.98 0.66 3 1 C2.34 1 1.68 1 1 1 C1 1.66 1 2.32 1 3 C4.465 2.505 4.465 2.505 8 2 C6.68 2.33 5.36 2.66 4 3 C4 3.99 4 4.98 4 6 C3.01 6 2.02 6 1 6 C1.33 8.31 1.66 10.62 2 13 C2.33 11.35 2.66 9.7 3 8 C4.32 8.33 5.64 8.66 7 9 C6.01 9.495 6.01 9.495 5 10 C4.67 10.99 4.34 11.98 4 13 C4.61875 13.12375 5.2375 13.2475 5.875 13.375 C8 14 8 14 10 16 C6.7 16 3.4 16 0 16 C0 10.72 0 5.44 0 0 Z " fill="#658B84" transform="translate(121,272)"/>
<path d="M0 0 C0.99 0 1.98 0 3 0 C3.06058594 0.89203125 3.12117188 1.7840625 3.18359375 2.703125 C3.26738281 3.87359375 3.35117187 5.0440625 3.4375 6.25 C3.51871094 7.41015625 3.59992188 8.5703125 3.68359375 9.765625 C3.93247787 12.30977376 4.28114942 14.55953248 5 17 C3.35 16.67 1.7 16.34 0 16 C-0.19672365 14.27185839 -0.38196799 12.54240803 -0.5625 10.8125 C-0.71912109 9.36810547 -0.71912109 9.36810547 -0.87890625 7.89453125 C-0.99758751 5.05766623 -0.67765639 2.74576329 0 0 Z " fill="#3D6961" transform="translate(320,271)"/>
<path d="M0 0 C8.14604592 3.07397959 8.14604592 3.07397959 10 7 C10.54796494 12.02301197 10.01491407 14.94146183 7 19 C6.34 19.66 5.68 20.32 5 21 C4.01 21 3.02 21 2 21 C2 20.01 2 19.02 2 18 C2.639375 17.731875 3.27875 17.46375 3.9375 17.1875 C6.33131686 16.11332248 6.33131686 16.11332248 7 13 C7.66 13 8.32 13 9 13 C8.26420788 11.53444684 7.51074874 10.07775513 6.75 8.625 C6.33234375 7.81289062 5.9146875 7.00078125 5.484375 6.1640625 C3.85732025 3.79198795 2.64613361 3.02905196 0 2 C0 1.34 0 0.68 0 0 Z " fill="#537B72" transform="translate(348,241)"/>
<path d="M0 0 C0.33 0.99 0.66 1.98 1 3 C2.65 3 4.3 3 6 3 C6.33 4.32 6.66 5.64 7 7 C7.99 7 8.98 7 10 7 C10 7.99 10 8.98 10 10 C9.34 10 8.68 10 8 10 C7.34 11.65 6.68 13.3 6 15 C2.16224263 11.16224263 0.82311447 5.26793259 0 0 Z " fill="#044839" transform="translate(222,229)"/>
<path d="M0 0 C1.32 0 2.64 0 4 0 C4.6875 3.3125 4.6875 3.3125 5 7 C3.5625 8.9375 3.5625 8.9375 2 10 C1.01 9.67 0.02 9.34 -1 9 C-1.625 5.625 -1.625 5.625 -2 2 C-1.34 1.34 -0.68 0.68 0 0 Z M-4 5 C-3.34 5.33 -2.68 5.66 -2 6 C-2.99 7.485 -2.99 7.485 -4 9 C-4.66 8.67 -5.32 8.34 -6 8 C-5.34 7.01 -4.68 6.02 -4 5 Z " fill="#0C4A3D" transform="translate(207,227)"/>
<path d="M0 0 C1.4540625 0.0309375 1.4540625 0.0309375 2.9375 0.0625 C3.2675 0.7225 3.5975 1.3825 3.9375 2.0625 C2.6175 2.3925 1.2975 2.7225 -0.0625 3.0625 C1.9175 3.0625 3.8975 3.0625 5.9375 3.0625 C4.9375 5.0625 4.9375 5.0625 1.9375 7.0625 C2.9275 7.0625 3.9175 7.0625 4.9375 7.0625 C4.9375 7.7225 4.9375 8.3825 4.9375 9.0625 C-1.8125 8.3125 -1.8125 8.3125 -4.0625 6.0625 C-4.25 3.5 -4.25 3.5 -4.0625 1.0625 C-3.0625 0.0625 -3.0625 0.0625 0 0 Z " fill="#406962" transform="translate(194.0625,277.9375)"/>
<path d="M0 0 C2.4375 0.375 2.4375 0.375 5 1 C6.26237731 3.52475462 6.09856404 5.31200466 6.0625 8.125 C6.05347656 9.03507812 6.04445313 9.94515625 6.03515625 10.8828125 C6.02355469 11.58148438 6.01195312 12.28015625 6 13 C4.68 13 3.36 13 2 13 C1.93941406 12.31292969 1.87882812 11.62585938 1.81640625 10.91796875 C1.73261719 10.01691406 1.64882813 9.11585938 1.5625 8.1875 C1.48128906 7.29417969 1.40007812 6.40085937 1.31640625 5.48046875 C1.06510233 2.87256441 1.06510233 2.87256441 0 0 Z " fill="#577D75" transform="translate(280,275)"/>
<path d="M0 0 C0.66 0 1.32 0 2 0 C2 0.66 2 1.32 2 2 C2.99 2.33 3.98 2.66 5 3 C5.6875 5.0625 5.6875 5.0625 6 7 C4.02 7.33 2.04 7.66 0 8 C0 8.66 0 9.32 0 10 C-0.99 9.67 -1.98 9.34 -3 9 C-2.34 9 -1.68 9 -1 9 C-1 8.01 -1 7.02 -1 6 C-1.99 6.33 -2.98 6.66 -4 7 C-6.6875 6.5625 -6.6875 6.5625 -9 6 C-6.03312999 4.35173889 -3.34373475 3.55728913 0 3 C0 2.01 0 1.02 0 0 Z " fill="#104C41" transform="translate(170,251)"/>
<path d="M0 0 C2.97 0 5.94 0 9 0 C9.04254356 1.99954746 9.04080783 4.00041636 9 6 C8 7 8 7 4.5625 7.125 C1 7 1 7 -1 6 C-0.67 4.68 -0.34 3.36 0 2 C1.98 2.66 3.96 3.32 6 4 C6 3.34 6 2.68 6 2 C3.03 1.505 3.03 1.505 0 1 C0 0.67 0 0.34 0 0 Z " fill="#4F7974" transform="translate(154,281)"/>
<path d="M0 0 C2.97 0.33 5.94 0.66 9 1 C9 2.98 9 4.96 9 7 C8.34 7 7.68 7 7 7 C7 5.68 7 4.36 7 3 C4.50447516 3.78130071 4.50447516 3.78130071 2 5 C1.67 5.99 1.34 6.98 1 8 C-1.5625 9.1875 -1.5625 9.1875 -4 10 C-3.25130208 8.27473958 -2.50260417 6.54947917 -1.75390625 4.82421875 C-1.10038058 3.24288979 -0.54108198 1.62324594 0 0 Z " fill="#3D645D" transform="translate(204,224)"/>
<path d="M0 0 C0.99 0.33 1.98 0.66 3 1 C3.04241723 3.33294775 3.04092937 5.66702567 3 8 C2 9 2 9 0.21484375 9.1328125 C-4.94580028 9.11510875 -9.89222297 8.74294939 -15 8 C-14.34 7.34 -13.68 6.68 -13 6 C-10.98528502 6.22385722 -8.96854744 6.45418316 -6.97265625 6.80859375 C-4.7887865 7.15535648 -4.7887865 7.15535648 -2 6 C-1.34 6.33 -0.68 6.66 0 7 C0 4.69 0 2.38 0 0 Z " fill="#2F564D" transform="translate(146,211)"/>
<path d="M0 0 C0.99 0 1.98 0 3 0 C3.5625 1.9375 3.5625 1.9375 4 4 C3.67 4.33 3.34 4.66 3 5 C2.92755947 7.01964199 2.91622812 9.04167124 2.9375 11.0625 C2.95103516 12.71958984 2.95103516 12.71958984 2.96484375 14.41015625 C2.97644531 15.26480469 2.98804688 16.11945313 3 17 C2.01 16.67 1.02 16.34 0 16 C0 10.72 0 5.44 0 0 Z " fill="#3E6B64" transform="translate(167,271)"/>
<path d="M0 0 C0 2.64 0 5.28 0 8 C-1.8125 9.0625 -1.8125 9.0625 -4 10 C-4.99 9.67 -5.98 9.34 -7 9 C-6.01 8.67 -5.02 8.34 -4 8 C-4.33 6.68 -4.66 5.36 -5 4 C-6.65 4 -8.3 4 -10 4 C-7.02096266 1.02096266 -4.19714671 0 0 0 Z " fill="#2D5E54" transform="translate(288,253)"/>
<path d="M0 0 C0.804375 0.33 1.60875 0.66 2.4375 1 C4.95510483 2.31205254 4.95510483 2.31205254 7.3125 1.125 C7.869375 0.75375 8.42625 0.3825 9 0 C9.33 0.99 9.66 1.98 10 3 C8.12785559 5.49619254 7.2104846 5.96865123 4.0625 6.4375 C0.38948075 5.91278296 -0.70232915 4.82790258 -3 2 C-2.01 1.34 -1.02 0.68 0 0 Z " fill="#537971" transform="translate(245,282)"/>
<path d="M0 0 C0.33 0 0.66 0 1 0 C1 7.59 1 15.18 1 23 C-5 26 -5 26 -7.375 25.6875 C-7.91125 25.460625 -8.4475 25.23375 -9 25 C-7.875 23.5 -7.875 23.5 -6 22 C-4.02 22 -2.04 22 0 22 C0 14.74 0 7.48 0 0 Z " fill="#678984" transform="translate(178,236)"/>
<path d="M0 0 C1.9375 0.375 1.9375 0.375 4 1 C5.26237731 3.52475462 5.09856404 5.31200466 5.0625 8.125 C5.05347656 9.03507812 5.04445313 9.94515625 5.03515625 10.8828125 C5.02355469 11.58148438 5.01195312 12.28015625 5 13 C3.68 12.67 2.36 12.34 1 12 C0.9729957 10.54176788 0.95360213 9.08339325 0.9375 7.625 C0.92589844 6.81289063 0.91429687 6.00078125 0.90234375 5.1640625 C1 3 1 3 2 1 C1.34 0.67 0.68 0.34 0 0 Z " fill="#55786F" transform="translate(360,275)"/>
<path d="M0 0 C1.32 0.33 2.64 0.66 4 1 C3.34 1 2.68 1 2 1 C1.01 3.97 0.02 6.94 -1 10 C-5.05431692 11.15837626 -7.21812119 10.83691257 -11 9 C-10.67 7.02 -10.34 5.04 -10 3 C-9.7525 3.639375 -9.505 4.27875 -9.25 4.9375 C-8.17967477 7.15004327 -8.17967477 7.15004327 -6 7.875 C-5.34 7.91625 -4.68 7.9575 -4 8 C-1.53721199 5.53721199 -1.00228745 3.29323018 0 0 Z " fill="#467069" transform="translate(196,252)"/>
<path d="M0 0 C0.66 0 1.32 0 2 0 C2.33 1.32 2.66 2.64 3 4 C5.31 4.33 7.62 4.66 10 5 C9.01 5.66 8.02 6.32 7 7 C6.01 8.485 6.01 8.485 5 10 C3.125 9.6875 3.125 9.6875 1 9 C-1.14809171 5.77786243 -1.29386153 4.72224599 -1 1 C-0.67 0.67 -0.34 0.34 0 0 Z " fill="#1C5348" transform="translate(364,249)"/>
<path d="M0 0 C0 0.33 0 0.66 0 1 C-5.75 1.125 -5.75 1.125 -8 0 C-8.33 0.66 -8.66 1.32 -9 2 C-9 1.34 -9 0.68 -9 0 C-9.66 0 -10.32 0 -11 0 C-11 0.66 -11 1.32 -11 2 C-12.98 2.33 -14.96 2.66 -17 3 C-16.67 2.34 -16.34 1.68 -16 1 C-18.97 0.505 -18.97 0.505 -22 0 C-22 -0.33 -22 -0.66 -22 -1 C-14.06878483 -2.58624303 -7.67573853 -2.19306815 0 0 Z " fill="#2C5E55" transform="translate(172,225)"/>
<path d="M0 0 C0 0.66 0 1.32 0 2 C0.66 2.33 1.32 2.66 2 3 C1.67 4.32 1.34 5.64 1 7 C-1.31 7 -3.62 7 -6 7 C-6.6875 5.1875 -6.6875 5.1875 -7 3 C-4.8243318 -0.20624788 -4.07796486 0 0 0 Z " fill="#0B4C3E" transform="translate(336,235)"/>
<path d="M0 0 C0.33 0.66 0.66 1.32 1 2 C2.65 2 4.3 2 6 2 C6 3.98 6 5.96 6 8 C4.02 8 2.04 8 0 8 C-0.12375 7.030625 -0.2475 6.06125 -0.375 5.0625 C-0.58125 4.051875 -0.7875 3.04125 -1 2 C-1.66 1.67 -2.32 1.34 -3 1 C-2.01 0.67 -1.02 0.34 0 0 Z " fill="#054839" transform="translate(205,253)"/>
<path d="M0 0 C-0.33 0.99 -0.66 1.98 -1 3 C-2.65 2.67 -4.3 2.34 -6 2 C-6 2.66 -6 3.32 -6 4 C-7.5 5.625 -7.5 5.625 -9 7 C-8.34 7.33 -7.68 7.66 -7 8 C-8.65 8.66 -10.3 9.32 -12 10 C-12.6875 7.6875 -12.6875 7.6875 -13 5 C-10.20754791 0.56492903 -4.83629747 0 0 0 Z " fill="#265C4F" transform="translate(196,208)"/>
<path d="M0 0 C1.98 0 3.96 0 6 0 C6 3.63 6 7.26 6 11 C5.34 10.67 4.68 10.34 4 10 C4 8.68 4 7.36 4 6 C3.34 6 2.68 6 2 6 C1.67 6.66 1.34 7.32 1 8 C1 7.34 1 6.68 1 6 C0.34 6 -0.32 6 -1 6 C-0.67 4.02 -0.34 2.04 0 0 Z " fill="#174038" transform="translate(343,276)"/>
<path d="M0 0 C1.8125 2 1.8125 2 3 4 C0.95301586 6.04698414 -3.30411241 5.70045693 -6 6 C-6.33 4.35 -6.66 2.7 -7 1 C-4.4254716 -0.2872642 -2.85291355 -0.34791629 0 0 Z " fill="#043526" transform="translate(378,275)"/>
<path d="M0 0 C0.33 1.65 0.66 3.3 1 5 C-2.20395416 5 -4.09399739 4.25664978 -7 3 C-7.66 3.66 -8.32 4.32 -9 5 C-8.625 2.5625 -8.625 2.5625 -8 0 C-5.13822943 -1.43088528 -3.06624227 -0.59991697 0 0 Z " fill="#4F8076" transform="translate(215,276)"/>
<path d="M0 0 C0.99 0.33 1.98 0.66 3 1 C3 1.66 3 2.32 3 3 C4.65 3.33 6.3 3.66 8 4 C8.36567164 10.460199 8.36567164 10.460199 6.6875 12.9375 C5 14 5 14 2 14 C2.33 12.68 2.66 11.36 3 10 C3.66 10 4.32 10 5 10 C5 8.35 5 6.7 5 5 C3.35 4.67 1.7 4.34 0 4 C0 2.66666667 0 1.33333333 0 0 Z " fill="#375F59" transform="translate(205,236)"/>
<path d="M0 0 C5.28 0 10.56 0 16 0 C16.33 0.66 16.66 1.32 17 2 C11.54045091 3.8198497 5.50982274 3.37745568 0 2 C0 1.34 0 0.68 0 0 Z " fill="#50756E" transform="translate(333,261)"/>
<path d="M0 0 C3.16115776 1.36983503 3.9927092 1.9890638 6 5 C6.125 8.1875 6.125 8.1875 6 11 C4.68 11 3.36 11 2 11 C0.7589311 8.5178622 1 6.75859975 1 4 C0.70955086 2.65667272 0.39044206 1.31774196 0 0 Z " fill="#2E5F55" transform="translate(172,226)"/>
<path d="M0 0 C0 1.66666667 0 3.33333333 0 5 C-3.3 4.67 -6.6 4.34 -10 4 C-7.75282684 -0.49434631 -4.47478037 -0.19887913 0 0 Z " fill="#05483A" transform="translate(383,242)"/>
<path d="M0 0 C0 0.33 0 0.66 0 1 C-1.99954746 1.04254356 -4.00041636 1.04080783 -6 1 C-6.33 0.67 -6.66 0.34 -7 0 C-12.07454515 -0.3632306 -17.01657457 -0.02224111 -22 1 C-21 -1 -21 -1 -18.0625 -2.1875 C-11.97729233 -3.78423838 -5.47647081 -3.07185949 0 0 Z " fill="#61837E" transform="translate(391,226)"/>
<path d="M0 0 C3.03898126 1.01299375 4.12139167 1.4951889 6 4 C6.1875 6.6875 6.1875 6.6875 6 9 C4.02 9 2.04 9 0 9 C0 6.03 0 3.06 0 0 Z " fill="#2F5D54" transform="translate(330,279)"/>
<path d="M0 0 C0.66 0 1.32 0 2 0 C3.125 6.75 3.125 6.75 2 9 C-0.64 9 -3.28 9 -6 9 C-4.68 8.67 -3.36 8.34 -2 8 C-2 6.02 -2 4.04 -2 2 C-1.34 2 -0.68 2 0 2 C0 1.34 0 0.68 0 0 Z " fill="#36685F" transform="translate(131,278)"/>
<path d="M0 0 C0.99 0.33 1.98 0.66 3 1 C3.38281159 6.23175837 2.21854707 9.37802694 0 14 C-0.33 14 -0.66 14 -1 14 C-1.22226864 12.23086176 -1.42733873 10.45955629 -1.625 8.6875 C-1.74101562 7.70136719 -1.85703125 6.71523437 -1.9765625 5.69921875 C-2 3 -2 3 0 0 Z " fill="#2F645B" transform="translate(248,239)"/>
<path d="M0 0 C0 1.65 0 3.3 0 5 C-0.4021875 4.51015625 -0.804375 4.0203125 -1.21875 3.515625 C-3.47015745 1.59995375 -4.58685742 1.65289525 -7.5 1.75 C-8.2734375 1.76546875 -9.046875 1.7809375 -9.84375 1.796875 C-12.1822807 1.93528295 -12.1822807 1.93528295 -15 3 C-14 0 -14 0 -12 -1.3125 C-7.69727911 -2.2985402 -4.18391314 -1.18498629 0 0 Z " fill="#1A4841" transform="translate(387,231)"/>
<path d="M0 0 C0.928125 0.20625 1.85625 0.4125 2.8125 0.625 C3.1425 2.935 3.4725 5.245 3.8125 7.625 C3.1525 7.625 2.4925 7.625 1.8125 7.625 C1.8125 6.305 1.8125 4.985 1.8125 3.625 C0.4925 3.955 -0.8275 4.285 -2.1875 4.625 C-2.1875 3.965 -2.1875 3.305 -2.1875 2.625 C-3.5075 2.295 -4.8275 1.965 -6.1875 1.625 C-3.1875 -0.375 -3.1875 -0.375 0 0 Z " fill="#265548" transform="translate(266.1875,275.375)"/>
<path d="M0 0 C2.4377963 -0.05397335 4.87439685 -0.09365616 7.3125 -0.125 C8.00279297 -0.14175781 8.69308594 -0.15851563 9.40429688 -0.17578125 C13.17135396 -0.21217794 14.78431704 -0.14378864 18 2 C12.06 2.33 6.12 2.66 0 3 C0 2.01 0 1.02 0 0 Z " fill="#4C736C" transform="translate(150,238)"/>
<path d="M0 0 C0.33 0.99 0.66 1.98 1 3 C6.28 3.33 11.56 3.66 17 4 C12.9566353 6.02168235 10.67870655 6.35927761 6.25 6.625 C5.07953125 6.69976562 3.9090625 6.77453125 2.703125 6.8515625 C1.81109375 6.90054688 0.9190625 6.94953125 0 7 C0 4.69 0 2.38 0 0 Z " fill="#678C83" transform="translate(144,227)"/>
<path d="M0 0 C1.65 0 3.3 0 5 0 C5.33 0.99 5.66 1.98 6 3 C4.68 4.32 3.36 5.64 2 7 C1.01 6.67 0.02 6.34 -1 6 C-0.67 5.34 -0.34 4.68 0 4 C-0.66 4 -1.32 4 -2 4 C-2 3.34 -2 2.68 -2 2 C-1.34 2 -0.68 2 0 2 C0 1.34 0 0.68 0 0 Z " fill="#07473B" transform="translate(337,224)"/>
<path d="M0 0 C0.66 0.33 1.32 0.66 2 1 C2 3.31 2 5.62 2 8 C-2.455 8.495 -2.455 8.495 -7 9 C-7.66 6.36 -8.32 3.72 -9 1 C-8.34 1 -7.68 1 -7 1 C-6.67 2.98 -6.34 4.96 -6 7 C-4.35 6.67 -2.7 6.34 -1 6 C-0.67 4.02 -0.34 2.04 0 0 Z " fill="#4A6F68" transform="translate(211,254)"/>
<path d="M0 0 C1.65 0.99 3.3 1.98 5 3 C4.67 5.31 4.34 7.62 4 10 C10.435 9.505 10.435 9.505 17 9 C17 9.66 17 10.32 17 11 C12.38 11 7.76 11 3 11 C2.01 7.37 1.02 3.74 0 0 Z " fill="#6D928A" transform="translate(228,252)"/>
<path d="M0 0 C2.64 0 5.28 0 8 0 C8.67667998 1.24460783 9.34094719 2.49596896 10 3.75 C10.556875 4.79414063 10.556875 4.79414063 11.125 5.859375 C12 8 12 8 12 12 C11.01 12 10.02 12 9 12 C8.34 8.37 7.68 4.74 7 1 C4.69 1 2.38 1 0 1 C0 0.67 0 0.34 0 0 Z " fill="#49716A" transform="translate(220,224)"/>
<path d="M0 0 C0.33 0 0.66 0 1 0 C1.21691118 3.18136394 1.25066255 5.43969547 -0.0625 8.375 C-2.93947559 10.78794727 -5.37659799 10.2734643 -9 10 C-7.625 8 -7.625 8 -6 6 C-5.34 6 -4.68 6 -4 6 C-4 4.35 -4 2.7 -4 1 C-3.34 1 -2.68 1 -2 1 C-2 2.32 -2 3.64 -2 5 C-1.34 5 -0.68 5 0 5 C0 3.35 0 1.7 0 0 Z " fill="#709A8F" transform="translate(270,278)"/>
<path d="M0 0 C-0.33 0.99 -0.66 1.98 -1 3 C-2.65 3.33 -4.3 3.66 -6 4 C-6 4.66 -6 5.32 -6 6 C-6.66 6 -7.32 6 -8 6 C-9 3 -9 3 -8 0 C-5.13822943 -1.43088528 -3.06624227 -0.59991697 0 0 Z " fill="#2F5F55" transform="translate(299,276)"/>
<path d="M0 0 C1.23556641 0.01740234 1.23556641 0.01740234 2.49609375 0.03515625 C3.32238281 0.04417969 4.14867187 0.05320313 5 0.0625 C5.63808594 0.07410156 6.27617187 0.08570313 6.93359375 0.09765625 C6.60359375 1.08765625 6.27359375 2.07765625 5.93359375 3.09765625 C5.93359375 2.43765625 5.93359375 1.77765625 5.93359375 1.09765625 C3.9582263 1.44552333 3.9582263 1.44552333 1.93359375 2.09765625 C1.60359375 2.75765625 1.27359375 3.41765625 0.93359375 4.09765625 C0.27359375 4.09765625 -0.38640625 4.09765625 -1.06640625 4.09765625 C-1.06640625 5.74765625 -1.06640625 7.39765625 -1.06640625 9.09765625 C-2.05640625 9.59265625 -2.05640625 9.59265625 -3.06640625 10.09765625 C-3.09329841 8.61858733 -3.11275246 7.13938142 -3.12890625 5.66015625 C-3.14050781 4.83644531 -3.15210938 4.01273438 -3.1640625 3.1640625 C-3.03158405 0.36081842 -2.80324408 0.13247845 0 0 Z " fill="#4C786F" transform="translate(249.06640625,223.90234375)"/>
<path d="M0 0 C2.97 0 5.94 0 9 0 C9 0.66 9 1.32 9 2 C8.34 2 7.68 2 7 2 C7.33 2.99 7.66 3.98 8 5 C7.01 5.495 7.01 5.495 6 6 C6 4.68 6 3.36 6 2 C4.68 2 3.36 2 2 2 C2 3.98 2 5.96 2 8 C1.34 7.67 0.68 7.34 0 7 C0 4.69 0 2.38 0 0 Z " fill="#0E4037" transform="translate(122,278)"/>
<path d="M0 0 C0.33 1.32 0.66 2.64 1 4 C-2.93312158 4 -5.3871899 3.44512404 -9 2 C-9.33 1.34 -9.66 0.68 -10 0 C-6.42355152 -1.2380014 -3.66305234 -0.74926071 0 0 Z " fill="#3A615A" transform="translate(254,272)"/>
<path d="M0 0 C0.66 0 1.32 0 2 0 C2.08131463 1.43655854 2.13933559 2.8744483 2.1875 4.3125 C2.22230469 5.11300781 2.25710938 5.91351563 2.29296875 6.73828125 C2 9 2 9 0.61328125 10.79296875 C-1 12 -1 12 -3 12 C-2.67 10.02 -2.34 8.04 -2 6 C-1.34 6 -0.68 6 0 6 C0 4.02 0 2.04 0 0 Z " fill="#2D5B53" transform="translate(393,235)"/>
<path d="M0 0 C1.1446875 0.3403125 1.1446875 0.3403125 2.3125 0.6875 C2.1875 2.5625 2.1875 2.5625 1.3125 4.6875 C-1.75 5.9375 -1.75 5.9375 -4.6875 6.6875 C-5.375 4.875 -5.375 4.875 -5.6875 2.6875 C-3.97309355 -0.07459928 -3.26180423 -0.37927956 0 0 Z " fill="#04493A" transform="translate(332.6875,229.3125)"/>
<path d="M0 0 C0.99 0.495 0.99 0.495 2 1 C2.144375 2.134375 2.28875 3.26875 2.4375 4.4375 C2.623125 5.613125 2.80875 6.78875 3 8 C3.99 8.66 4.98 9.32 6 10 C6.33 10.66 6.66 11.32 7 12 C5.02 12 3.04 12 1 12 C-0.26237731 9.47524538 -0.09856404 7.68799534 -0.0625 4.875 C-0.05347656 3.96492188 -0.04445313 3.05484375 -0.03515625 2.1171875 C-0.02355469 1.41851562 -0.01195312 0.71984375 0 0 Z " fill="#316055" transform="translate(304,276)"/>
<path d="M0 0 C0.99 0.33 1.98 0.66 3 1 C3 4.3 3 7.6 3 11 C0 9 0 9 -0.546875 7.08984375 C-0.7381288 5.06328901 -0.87101785 3.03146886 -1 1 C-0.67 0.67 -0.34 0.34 0 0 Z " fill="#0C4E43" transform="translate(244,245)"/>
<path d="M0 0 C0.66 0 1.32 0 2 0 C2.33 1.65 2.66 3.3 3 5 C0.03 5 -2.94 5 -6 5 C-5.01 4.01 -4.02 3.02 -3 2 C-2.01 2 -1.02 2 0 2 C0 1.34 0 0.68 0 0 Z M3 0 C3.99 0.495 3.99 0.495 5 1 C4.01 1.495 4.01 1.495 3 2 C3 1.34 3 0.68 3 0 Z " fill="#05473A" transform="translate(161,225)"/>
<path d="M0 0 C-0.875 4.875 -0.875 4.875 -2 6 C-4.33297433 6.04092937 -6.66705225 6.04241723 -9 6 C-9.33 5.34 -9.66 4.68 -10 4 C-7.69 4.33 -5.38 4.66 -3 5 C-3.99 4.34 -4.98 3.68 -6 3 C-3.375 0 -3.375 0 0 0 Z " fill="#73908C" transform="translate(202,282)"/>
<path d="M0 0 C0.33 0 0.66 0 1 0 C1 3.63 1 7.26 1 11 C0.01 11 -0.98 11 -2 11 C-2 8.03 -2 5.06 -2 2 C-1.34 2 -0.68 2 0 2 C0 1.34 0 0.68 0 0 Z " fill="#4A6E65" transform="translate(185,277)"/>
<path d="M0 0 C0.33 0.99 0.66 1.98 1 3 C0.34 3 -0.32 3 -1 3 C-1.33 4.65 -1.66 6.3 -2 8 C-3.32 7.67 -4.64 7.34 -6 7 C-5.8125 5.1875 -5.8125 5.1875 -5 3 C-2.4375 1.25 -2.4375 1.25 0 0 Z " fill="#01493A" transform="translate(392,238)"/>
<path d="M0 0 C0.99 0.66 1.98 1.32 3 2 C2.67 2.66 2.34 3.32 2 4 C0.68 3.67 -0.64 3.34 -2 3 C-1.34 3 -0.68 3 0 3 C0 2.01 0 1.02 0 0 Z M-8 3 C-7.34 3 -6.68 3 -6 3 C-6 3.66 -6 4.32 -6 5 C-4.68 4.67 -3.36 4.34 -2 4 C-2.33 4.61875 -2.66 5.2375 -3 5.875 C-4.14193235 7.91018344 -4.14193235 7.91018344 -4 10 C-4.66 10 -5.32 10 -6 10 C-6.66 7.69 -7.32 5.38 -8 3 Z " fill="#275B52" transform="translate(334,231)"/>
<path d="M0 0 C0.66 0 1.32 0 2 0 C2 2.97 2 5.94 2 9 C-2.75 8.25 -2.75 8.25 -5 6 C-3.68 5.67 -2.36 5.34 -1 5 C-0.67 3.35 -0.34 1.7 0 0 Z " fill="#61817C" transform="translate(323,226)"/>
<path d="M0 0 C2 3 2 3 3 5 C3.99 5.66 4.98 6.32 6 7 C4.02 7.66 2.04 8.32 0 9 C-1 8 -1 8 -1.125 4.5 C-1 1 -1 1 0 0 Z " fill="#395D54" transform="translate(370,277)"/>
<path d="M0 0 C2.0625 1.75 2.0625 1.75 4 4 C3.82246387 7.01811422 3.16264785 7.83735215 1 10 C-0.83691257 6.21812119 -1.15837626 4.05431692 0 0 Z " fill="#4B726D" transform="translate(385,275)"/>
<path d="M0 0 C1.32 0.66 2.64 1.32 4 2 C3.67 3.65 3.34 5.3 3 7 C2.34 7 1.68 7 1 7 C0.67 7.99 0.34 8.98 0 10 C-0.99 9.67 -1.98 9.34 -3 9 C-2.34 8.67 -1.68 8.34 -1 8 C-1 7.34 -1 6.68 -1 6 C-0.34 6 0.32 6 1 6 C0.67 4.02 0.34 2.04 0 0 Z " fill="#5A7C72" transform="translate(212,211)"/>
<path d="M0 0 C1.65 0 3.3 0 5 0 C5.33 0.66 5.66 1.32 6 2 C4.68 2.33 3.36 2.66 2 3 C3.98 3 5.96 3 8 3 C7.67 3.66 7.34 4.32 7 5 C4.36 5 1.72 5 -1 5 C-0.67 3.35 -0.34 1.7 0 0 Z " fill="#0E382F" transform="translate(192,278)"/>
<path d="M0 0 C0.66 0 1.32 0 2 0 C2 3.63 2 7.26 2 11 C1.01 11 0.02 11 -1 11 C-0.67 7.37 -0.34 3.74 0 0 Z " fill="#0E503B" transform="translate(146,275)"/>
<path d="M0 0 C0.99 0 1.98 0 3 0 C2.67 1.98 2.34 3.96 2 6 C2.66 6 3.32 6 4 6 C4 4.68 4 3.36 4 2 C5.32 2.33 6.64 2.66 8 3 C8 3.66 8 4.32 8 5 C4.535 6.485 4.535 6.485 1 8 C0.67 5.36 0.34 2.72 0 0 Z " fill="#296254" transform="translate(280,233)"/>
<path d="M0 0 C0.33 0 0.66 0 1 0 C1.33 3.96 1.66 7.92 2 12 C-1.3 12 -4.6 12 -8 12 C-8 11.67 -8 11.34 -8 11 C-5.36 10.67 -2.72 10.34 0 10 C0 6.7 0 3.4 0 0 Z " fill="#799891" transform="translate(148,276)"/>
<path d="M0 0 C0.66 0 1.32 0 2 0 C1.62952882 2.74148672 1.31412056 4.58593199 -0.375 6.8125 C-2 8 -2 8 -5 8 C-5 7.01 -5 6.02 -5 5 C-4.360625 4.731875 -3.72125 4.46375 -3.0625 4.1875 C-0.66868314 3.11332248 -0.66868314 3.11332248 0 0 Z " fill="#39655D" transform="translate(355,254)"/>
<path d="M0 0 C1.32 0 2.64 0 4 0 C4.33 1.32 4.66 2.64 5 4 C3.35 4.33 1.7 4.66 0 5 C0 4.34 0 3.68 0 3 C-0.66 2.67 -1.32 2.34 -2 2 C-1.34 1.34 -0.68 0.68 0 0 Z " fill="#1B5448" transform="translate(388,257)"/>
<path d="M0 0 C0.66 0 1.32 0 2 0 C3.29243536 4.1196377 4.26252625 7.66831683 4 12 C1.95780294 10.30820672 1.08206694 9.36272334 0.48828125 6.73828125 C0.43027344 5.93777344 0.37226563 5.13726562 0.3125 4.3125 C0.24675781 3.50425781 0.18101562 2.69601563 0.11328125 1.86328125 C0.07589844 1.24839844 0.03851563 0.63351563 0 0 Z " fill="#4D756E" transform="translate(140,248)"/>
<path d="M0 0 C0 0.66 0 1.32 0 2 C-0.99 2.66 -1.98 3.32 -3 4 C-3.36416047 6.43693311 -3.36416047 6.43693311 -3.1875 9.125 C-3.16042969 10.03507813 -3.13335937 10.94515625 -3.10546875 11.8828125 C-3.07066406 12.58148438 -3.03585937 13.28015625 -3 14 C-3.99 14.495 -3.99 14.495 -5 15 C-5 10.38 -5 5.76 -5 1 C-2 0 -2 0 0 0 Z " fill="#1D5045" transform="translate(302,226)"/>
<path d="M0 0 C0.33 0.66 0.66 1.32 1 2 C1.99 1.67 2.98 1.34 4 1 C3.34 2.98 2.68 4.96 2 7 C0.68 7 -0.64 7 -2 7 C-2 6.01 -2 5.02 -2 4 C-1.34 4 -0.68 4 0 4 C0 2.68 0 1.36 0 0 Z " fill="#476A63" transform="translate(387,285)"/>
<path d="M0 0 C1.0625 1.8125 1.0625 1.8125 2 4 C1.67 4.99 1.34 5.98 1 7 C0.67 5.68 0.34 4.36 0 3 C-2.97 3 -5.94 3 -9 3 C-9 2.34 -9 1.68 -9 1 C-5.92677456 0.08941469 -3.19902639 -0.08886184 0 0 Z " fill="#5D827B" transform="translate(194,224)"/>
<path d="M0 0 C0.99 0 1.98 0 3 0 C3 0.66 3 1.32 3 2 C6.96 2.33 10.92 2.66 15 3 C15 3.33 15 3.66 15 4 C10.38 4 5.76 4 1 4 C1 3.34 1 2.68 1 2 C0.34 1.67 -0.32 1.34 -1 1 C-0.67 0.67 -0.34 0.34 0 0 Z " fill="#4A7C74" transform="translate(334,228)"/>
<path d="M0 0 C0.66 0 1.32 0 2 0 C2 0.66 2 1.32 2 2 C2.99 2.33 3.98 2.66 5 3 C5.99 3.66 6.98 4.32 8 5 C5.36 5 2.72 5 0 5 C-0.33 4.01 -0.66 3.02 -1 2 C-0.67 1.34 -0.34 0.68 0 0 Z " fill="#74908C" transform="translate(220,283)"/>
<path d="M0 0 C0.66 0 1.32 0 2 0 C2 0.66 2 1.32 2 2 C2.61875 2.12375 3.2375 2.2475 3.875 2.375 C6 3 6 3 8 5 C4.625 5.1875 4.625 5.1875 1 5 C0.34 4.01 -0.32 3.02 -1 2 C-0.67 1.34 -0.34 0.68 0 0 Z " fill="#759588" transform="translate(206,283)"/>
<path d="M0 0 C0.33 0.99 0.66 1.98 1 3 C0 4 0 4 -3.16015625 4.09765625 C-5.09181641 4.08025391 -5.09181641 4.08025391 -7.0625 4.0625 C-8.35285156 4.05347656 -9.64320313 4.04445313 -10.97265625 4.03515625 C-11.97167969 4.02355469 -12.97070312 4.01195312 -14 4 C-14 3.67 -14 3.34 -14 3 C-12.86111328 2.92652344 -12.86111328 2.92652344 -11.69921875 2.8515625 C-10.20841797 2.73941406 -10.20841797 2.73941406 -8.6875 2.625 C-7.70136719 2.55539063 -6.71523438 2.48578125 -5.69921875 2.4140625 C-2.78471567 2.16134528 -2.78471567 2.16134528 0 0 Z " fill="#245049" transform="translate(348,253)"/>
<path d="M0 0 C0.99 0.33 1.98 0.66 3 1 C2.0409375 1.86625 2.0409375 1.86625 1.0625 2.75 C-0.98223868 4.98062401 -1.58205199 6.07436391 -2 9 C-2.99 9 -3.98 9 -5 9 C-3.7508258 5.54074837 -2.32472205 2.85306797 0 0 Z " fill="#59817A" transform="translate(263,226)"/>
<path d="M0 0 C0.33 0 0.66 0 1 0 C1.33 1.65 1.66 3.3 2 5 C2.33 5 2.66 5 3 5 C3 6.98 3 8.96 3 11 C2.01 10.67 1.02 10.34 0 10 C0 6.7 0 3.4 0 0 Z " fill="#7B9A93" transform="translate(167,277)"/>
<path d="M0 0 C2.3125 -0.25 2.3125 -0.25 5 0 C6.8125 2 6.8125 2 8 4 C6.68 4.33 5.36 4.66 4 5 C3.896875 4.360625 3.79375 3.72125 3.6875 3.0625 C3.460625 2.381875 3.23375 1.70125 3 1 C2.01 0.67 1.02 0.34 0 0 Z " fill="#3B615B" transform="translate(373,275)"/>
<path d="M0 0 C0.33 0 0.66 0 1 0 C1.2954439 5.02254631 0.98514628 7.89542386 -2 12 C-2.66 11.34 -3.32 10.68 -4 10 C-3.34 8.68 -2.68 7.36 -2 6 C-1.34 6 -0.68 6 0 6 C0 4.02 0 2.04 0 0 Z " fill="#5F847D" transform="translate(290,234)"/>
<path d="M0 0 C1.32 0 2.64 0 4 0 C4 1.65 4 3.3 4 5 C3.01 5 2.02 5 1 5 C1 4.34 1 3.68 1 3 C0.34 3 -0.32 3 -1 3 C-0.67 2.01 -0.34 1.02 0 0 Z " fill="#0F4339" transform="translate(251,225)"/>
<path d="M0 0 C0.66 1.32 1.32 2.64 2 4 C2.33 3.67 2.66 3.34 3 3 C3.33 3.99 3.66 4.98 4 6 C1.625 6.1875 1.625 6.1875 -1 6 C-1.66 5.01 -2.32 4.02 -3 3 C-2.34 3 -1.68 3 -1 3 C-0.67 2.01 -0.34 1.02 0 0 Z " fill="#678A84" transform="translate(346,282)"/>
<path d="M0 0 C2.31 0 4.62 0 7 0 C5.68 0.33 4.36 0.66 3 1 C3 1.66 3 2.32 3 3 C4.32 3.33 5.64 3.66 7 4 C5.02 4 3.04 4 1 4 C0.67 2.68 0.34 1.36 0 0 Z " fill="#274B43" transform="translate(260,283)"/>
<path d="M0 0 C0.66 0.66 1.32 1.32 2 2 C1.67 2.99 1.34 3.98 1 5 C1.38932856 7.14255793 1.38932856 7.14255793 2 9 C1.01 9.495 1.01 9.495 0 10 C-0.12375 9.360625 -0.2475 8.72125 -0.375 8.0625 C-0.684375 7.0415625 -0.684375 7.0415625 -1 6 C-1.66 5.67 -2.32 5.34 -3 5 C-3 3 -3 3 -1.5 1.375 C-1.005 0.92125 -0.51 0.4675 0 0 Z " fill="#72A6A3" transform="translate(299,276)"/>
<path d="M0 0 C0.99 0 1.98 0 3 0 C3 2.31 3 4.62 3 7 C2.34 7 1.68 7 1 7 C0.67 4.69 0.34 2.38 0 0 Z " fill="#1D5145" transform="translate(311,276)"/>
<path d="M0 0 C0.33 0.66 0.66 1.32 1 2 C-1.70879335 3.35439668 -4.00933268 3.06501451 -7 3 C-7 2.34 -7 1.68 -7 1 C-4.53721199 -0.231394 -2.7204945 -0.07159196 0 0 Z " fill="#54746E" transform="translate(199,275)"/>
<path d="M0 0 C0.33 0 0.66 0 1 0 C1 1.98 1 3.96 1 6 C2.98 6 4.96 6 7 6 C6.67 6.99 6.34 7.98 6 9 C4.02 8.34 2.04 7.68 0 7 C0 4.69 0 2.38 0 0 Z " fill="#5E8D89" transform="translate(185,240)"/>
<path d="M0 0 C2.875 0.25 2.875 0.25 6 1 C6.66 2.32 7.32 3.64 8 5 C5.03 4.01 2.06 3.02 -1 2 C-0.67 1.34 -0.34 0.68 0 0 Z " fill="#3C645D" transform="translate(331,241)"/>
<path d="M0 0 C-1.8125 2 -1.8125 2 -4 4 C-4.99 4 -5.98 4 -7 4 C-7 3.01 -7 2.02 -7 1 C-3.375 -1.125 -3.375 -1.125 0 0 Z " fill="#064539" transform="translate(250,237)"/>
<path d="M0 0 C2.375 0.25 2.375 0.25 5 1 C6.3125 3.0625 6.3125 3.0625 7 5 C6.01 5.99 5.02 6.98 4 8 C3.566875 6.576875 3.566875 6.576875 3.125 5.125 C2.23174891 1.94788422 2.23174891 1.94788422 0 0 Z " fill="#4B766D" transform="translate(165,232)"/>
<path d="M0 0 C0 0.33 0 0.66 0 1 C-5.16044765 2.512545 -8.65998179 3.33500455 -14 2 C-14 1.67 -14 1.34 -14 1 C-9.23692563 0.04738513 -4.8333472 -0.08333357 0 0 Z " fill="#8CA6A0" transform="translate(164,223)"/>
<path d="M0 0 C0.33 0.66 0.66 1.32 1 2 C1.66 2 2.32 2 3 2 C3.66 3.32 4.32 4.64 5 6 C3.68 6 2.36 6 1 6 C1 5.34 1 4.68 1 4 C0.34 4 -0.32 4 -1 4 C-0.67 2.68 -0.34 1.36 0 0 Z " fill="#22625B" transform="translate(208,278)"/>
<path d="M0 0 C0 1.98 0 3.96 0 6 C-0.33 5.34 -0.66 4.68 -1 4 C-3.02463255 3.34786708 -3.02463255 3.34786708 -5 3 C-5 2.34 -5 1.68 -5 1 C-3 0 -3 0 0 0 Z " fill="#426B61" transform="translate(393,253)"/>
<path d="M0 0 C-0.33 0.99 -0.66 1.98 -1 3 C-4.3 3.33 -7.6 3.66 -11 4 C-10 2 -10 2 -7.1875 0.875 C-4 0 -4 0 0 0 Z " fill="#547E72" transform="translate(196,208)"/>
<path d="M0 0 C0.99 0.33 1.98 0.66 3 1 C3 2.65 3 4.3 3 6 C2.01 6 1.02 6 0 6 C0 4.02 0 2.04 0 0 Z " fill="#41665E" transform="translate(355,282)"/>
<path d="M0 0 C0.99 0 1.98 0 3 0 C3 0.66 3 1.32 3 2 C4.65 1.67 6.3 1.34 8 1 C8 1.99 8 2.98 8 4 C5.69 3.67 3.38 3.34 1 3 C0.67 2.01 0.34 1.02 0 0 Z " fill="#0B342B" transform="translate(153,278)"/>
<path d="M0 0 C0.66 0.66 1.32 1.32 2 2 C1.34 3.32 0.68 4.64 0 6 C-0.99 6 -1.98 6 -3 6 C-2.625 3.5625 -2.625 3.5625 -2 1 C-1.34 0.67 -0.68 0.34 0 0 Z " fill="#53766C" transform="translate(393,275)"/>
<path d="M0 0 C-0.33 0.99 -0.66 1.98 -1 3 C-2.98 3.33 -4.96 3.66 -7 4 C-6.67 3.01 -6.34 2.02 -6 1 C-3 0 -3 0 0 0 Z " fill="#52726C" transform="translate(229,276)"/>
<path d="M0 0 C0.99 0.33 1.98 0.66 3 1 C3 1.99 3 2.98 3 4 C1.35 4 -0.3 4 -2 4 C-2 3.01 -2 2.02 -2 1 C-1.34 0.67 -0.68 0.34 0 0 Z " fill="#09422E" transform="translate(245,273)"/>
<path d="M0 0 C0.66 0.33 1.32 0.66 2 1 C2 3.31 2 5.62 2 8 C1.01 7.67 0.02 7.34 -1 7 C-0.67 4.69 -0.34 2.38 0 0 Z " fill="#355B56" transform="translate(211,254)"/>
<path d="M0 0 C4.29 0.33 8.58 0.66 13 1 C13 1.33 13 1.66 13 2 C7.06 2.495 7.06 2.495 1 3 C0.67 2.01 0.34 1.02 0 0 Z " fill="#83A49E" transform="translate(332,254)"/>
<path d="M0 0 C0.33 0.99 0.66 1.98 1 3 C0.34 3.66 -0.32 4.32 -1 5 C-1.66 4.67 -2.32 4.34 -3 4 C-3.33 4.66 -3.66 5.32 -4 6 C-3.67 4.35 -3.34 2.7 -3 1 C-2.01 0.67 -1.02 0.34 0 0 Z " fill="#326057" transform="translate(145,242)"/>
<path d="M0 0 C3.3 0 6.6 0 10 0 C10 1.65 10 3.3 10 5 C9.649375 4.525625 9.29875 4.05125 8.9375 3.5625 C6.15836457 1.32126175 3.4855283 1.32882342 0 1 C0 0.67 0 0.34 0 0 Z " fill="#7C9B97" transform="translate(377,231)"/>
<path d="M0 0 C2.97 0.495 2.97 0.495 6 1 C6 1.99 6 2.98 6 4 C3.83125748 3.49396008 2.00032373 3.00016187 0 2 C0 1.34 0 0.68 0 0 Z " fill="#06483B" transform="translate(188,226)"/>
<path d="M0 0 C0.66 0 1.32 0 2 0 C2.33 2.97 2.66 5.94 3 9 C-0.06000643 5.93999357 -0.56942344 5.09047728 -1 1 C-0.67 0.67 -0.34 0.34 0 0 Z " fill="#375B54" transform="translate(186,226)"/>
<path d="M0 0 C6.75 0.75 6.75 0.75 9 3 C7.35 3.33 5.7 3.66 4 4 C3.67 3.01 3.34 2.02 3 1 C2.01 0.67 1.02 0.34 0 0 Z " fill="#477973" transform="translate(203,208)"/>
<path d="" fill="#FFFFFF" transform="translate(0,0)"/>
<path d="" fill="#FFFFFF" transform="translate(0,0)"/>
<path d="" fill="#FFFFFF" transform="translate(0,0)"/>
<path d="" fill="#FFFFFF" transform="translate(0,0)"/>
<path d="" fill="#FFFFFF" transform="translate(0,0)"/>
<path d="" fill="#FFFFFF" transform="translate(0,0)"/>
<path d="" fill="#FFFFFF" transform="translate(0,0)"/>
<path d="" fill="#FFFFFF" transform="translate(0,0)"/>
<path d="" fill="#FFFFFF" transform="translate(0,0)"/>
<path d="" fill="#FFFFFF" transform="translate(0,0)"/>
<path d="" fill="#FFFFFF" transform="translate(0,0)"/>
<path d="" fill="#FFFFFF" transform="translate(0,0)"/>
<path d="" fill="#FFFFFF" transform="translate(0,0)"/>
<path d="" fill="#FFFFFF" transform="translate(0,0)"/>
<path d="" fill="#FFFFFF" transform="translate(0,0)"/>
<path d="" fill="#FFFFFF" transform="translate(0,0)"/>
<path d="" fill="#FFFFFF" transform="translate(0,0)"/>
<path d="" fill="#FFFFFF" transform="translate(0,0)"/>
<path d="" fill="#FFFFFF" transform="translate(0,0)"/>
<path d="" fill="#FFFFFF" transform="translate(0,0)"/>
<path d="" fill="#FFFFFF" transform="translate(0,0)"/>
<path d="" fill="#FFFFFF" transform="translate(0,0)"/>
<path d="" fill="#FFFFFF" transform="translate(0,0)"/>
<path d="" fill="#FFFFFF" transform="translate(0,0)"/>
<path d="" fill="#FFFFFF" transform="translate(0,0)"/>
<path d="" fill="#FFFFFF" transform="translate(0,0)"/>
<path d="" fill="#FFFFFF" transform="translate(0,0)"/>
<path d="" fill="#FFFFFF" transform="translate(0,0)"/>
<path d="" fill="#FFFFFF" transform="translate(0,0)"/>
<path d="" fill="#FFFFFF" transform="translate(0,0)"/>
<path d="" fill="#FFFFFF" transform="translate(0,0)"/>
<path d="" fill="#FFFFFF" transform="translate(0,0)"/>
<path d="" fill="#FFFFFF" transform="translate(0,0)"/>
<path d="" fill="#000000" transform="translate(0,0)"/>
<path d="" fill="#00FFFF" transform="translate(0,0)"/>
<path d="" fill="#000000" transform="translate(0,0)"/>
<path d="" fill="#FFFFFF" transform="translate(0,0)"/>
<path d="" fill="#FFFFFF" transform="translate(0,0)"/>
<path d="" fill="#FFFFFF" transform="translate(0,0)"/>
<path d="" fill="#FFFFFF" transform="translate(0,0)"/>
<path d="" fill="#FFFFFF" transform="translate(0,0)"/>
<path d="" fill="#FFFFFF" transform="translate(0,0)"/>
<path d="" fill="#FFFFFF" transform="translate(0,0)"/>
<path d="" fill="#FFFFFF" transform="translate(0,0)"/>
<path d="" fill="#FFFFFF" transform="translate(0,0)"/>
<path d="" fill="#FFFFFF" transform="translate(0,0)"/>
<path d="" fill="#FFFFFF" transform="translate(0,0)"/>
<path d="" fill="#FFFFFF" transform="translate(0,0)"/>
<path d="" fill="#FFFFFF" transform="translate(0,0)"/>
<path d="" fill="#FFFFFF" transform="translate(0,0)"/>
<path d="" fill="#FFFFFF" transform="translate(0,0)"/>
<path d="" fill="#FFFFFF" transform="translate(0,0)"/>
<path d="" fill="#FFFFFF" transform="translate(0,0)"/>
<path d="" fill="#FFFFFF" transform="translate(0,0)"/>
<path d="" fill="#FFFFFF" transform="translate(0,0)"/>
<path d="" fill="#FFFFFF" transform="translate(0,0)"/>
<path d="" fill="#FFFFFF" transform="translate(0,0)"/>
<path d="" fill="#FFFFFF" transform="translate(0,0)"/>
<path d="" fill="#FFFFFF" transform="translate(0,0)"/>
<path d="" fill="#FFFFFF" transform="translate(0,0)"/>
<path d="" fill="#FFFFFF" transform="translate(0,0)"/>
<path d="" fill="#FFFFFF" transform="translate(0,0)"/>
<path d="" fill="#FFFFFF" transform="translate(0,0)"/>
<path d="" fill="#FFFFFF" transform="translate(0,0)"/>
<path d="" fill="#FFFFFF" transform="translate(0,0)"/>
<path d="" fill="#FFFFFF" transform="translate(0,0)"/>
<path d="" fill="#FFFFFF" transform="translate(0,0)"/>
<path d="" fill="#FFFFFF" transform="translate(0,0)"/>
<path d="" fill="#FFFFFF" transform="translate(0,0)"/>
<path d="" fill="#FFFFFF" transform="translate(0,0)"/>
<path d="" fill="#FFFFFF" transform="translate(0,0)"/>
<path d="" fill="#FFFFFF" transform="translate(0,0)"/>
<path d="" fill="#FFFFFF" transform="translate(0,0)"/>
<path d="" fill="#FFFFFF" transform="translate(0,0)"/>
<path d="" fill="#FFFFFF" transform="translate(0,0)"/>
<path d="" fill="#FFFFFF" transform="translate(0,0)"/>
<path d="" fill="#FFFFFF" transform="translate(0,0)"/>
<path d="" fill="#FFFFFF" transform="translate(0,0)"/>
<path d="" fill="#FFFFFF" transform="translate(0,0)"/>
<path d="" fill="#FFFFFF" transform="translate(0,0)"/>
</svg>
