<?xml version="1.0" encoding="UTF-8"?>
<!-- Generator: visioncortex VTracer 0.6.12 -->
<svg version="1.1" xmlns="http://www.w3.org/2000/svg" viewBox="80 860 980 250">
<path d="M0 0 C6.83159822 7.37352789 9.25696719 16.737924 9.23852539 26.53051758 C9.23867142 27.18473694 9.23881744 27.8389563 9.2389679 28.51300049 C9.23827494 30.66104526 9.23051164 32.80900175 9.22265625 34.95703125 C9.22078988 36.45204114 9.21936701 37.94705165 9.21836853 39.44206238 C9.21456064 43.36621811 9.20474518 47.2903365 9.19366455 51.21447754 C9.18341321 55.22305801 9.17886294 59.23164455 9.17382812 63.24023438 C9.1631213 71.09767334 9.14606572 78.95508202 9.125 86.8125 C7.35835264 87.62059695 5.59115776 88.42749701 3.82373047 89.23388672 C3.33170639 89.45862167 3.33170639 89.45862167 0.84176636 90.59591675 C-21.67416261 100.67867635 -53.39574288 102.93177789 -76.875 94.9375 C-85.11166877 91.63801573 -91.93283477 86.68647072 -95.984375 78.59765625 C-99.49484221 68.6458129 -99.33719968 56.94313503 -95.1875 47.24609375 C-90.22005654 38.03562567 -83.4674054 34.37142182 -73.765625 31.1015625 C-54.15534243 25.85695205 -31.98754019 29.24364105 -12.875 34.8125 C-14.54451339 18.77638457 -14.54451339 18.77638457 -20.3515625 13.4609375 C-31.13457275 5.33805312 -47.5743135 6.13696687 -60.25 7.5625 C-67.1417474 8.53807597 -73.37285098 10.38957402 -79.875 12.8125 C-81.855 13.4725 -83.835 14.1325 -85.875 14.8125 C-85.875 8.2125 -85.875 1.6125 -85.875 -5.1875 C-60.58219126 -15.09954667 -22.08396952 -19.84701571 0 0 Z M-73.875 54.8125 C-76.29376387 59.5448641 -76.23346778 63.78113785 -74.875 68.8125 C-72.60932814 73.52509748 -70.01170266 75.90987194 -65.34375 78 C-49.28424099 83.28540803 -29.66659042 81.37291916 -13.875 75.8125 C-12.875 74.8125 -12.875 74.8125 -12.76147461 72.58764648 C-12.76671143 71.62930908 -12.77194824 70.67097168 -12.77734375 69.68359375 C-12.78056641 68.64912109 -12.78378906 67.61464844 -12.78710938 66.54882812 C-12.79548828 65.46021484 -12.80386719 64.37160156 -12.8125 63.25 C-12.81701172 62.15751953 -12.82152344 61.06503906 -12.82617188 59.93945312 C-12.83800174 57.23041505 -12.85448457 54.52148401 -12.875 51.8125 C-23.73122385 47.57450887 -33.91377013 46.62192113 -45.5 46.5 C-46.45334229 46.48235596 -47.40668457 46.46471191 -48.38891602 46.4465332 C-57.75813904 46.45540023 -67.32589835 47.59169561 -73.875 54.8125 Z " fill="#07503D" transform="translate(321.875,922.1875)"/>
<path d="M0 0 C7.32364176 7.72964322 10.29120624 17.42644424 10.109375 27.97265625 C9.50188884 36.78899387 7.31089553 43.04814852 0.95703125 49.37109375 C-10.01946057 57.90011452 -26.26172109 55.52606521 -39.29296875 55.37109375 C-41.50259506 55.35602149 -43.7122313 55.34233758 -45.921875 55.33007812 C-51.29579216 55.29727017 -56.66933333 55.24727222 -62.04296875 55.18359375 C-61.74079584 56.63119502 -61.4332937 58.07768457 -61.12353516 59.52368164 C-60.9528653 60.32931046 -60.78219543 61.13493927 -60.60635376 61.96498108 C-59.95050729 64.54770739 -58.95920031 66.45345521 -57.41796875 68.62109375 C-55.04296875 72.01885387 -55.04296875 72.01885387 -55.04296875 74.18359375 C-53.71206403 74.85509568 -52.37812605 75.52058756 -51.04296875 76.18359375 C-50.35203125 76.53679687 -49.66109375 76.89 -48.94921875 77.25390625 C-36.84870745 82.55770179 -21.95972948 81.75091468 -9.6875 77.33984375 C-6.2914841 75.85502735 -3.20674603 74.10937123 -0.04296875 72.18359375 C0.94703125 72.18359375 1.93703125 72.18359375 2.95703125 72.18359375 C2.95703125 78.78359375 2.95703125 85.38359375 2.95703125 92.18359375 C-6.0891226 96.70667067 -6.0891226 96.70667067 -10.60546875 97.87109375 C-11.03923828 97.98646484 -11.03923828 97.98646484 -13.234375 98.5703125 C-32.4346189 102.76285533 -52.1632501 100.55112541 -68.8671875 90.03515625 C-78.67957549 82.77244388 -82.79827501 71.04742043 -84.6328125 59.45703125 C-86.75653183 40.67958886 -86.2173731 20.13311671 -74.79296875 4.30859375 C-65.93084098 -6.27619385 -53.48683832 -10.2978757 -40.14453125 -11.56640625 C-25.44313343 -12.64667853 -11.25632254 -10.00801144 0 0 Z M-56.04296875 15.18359375 C-59.75686293 20.17889001 -61.33583895 24.84392949 -62.1875 31 C-62.3522583 32.16088135 -62.5170166 33.3217627 -62.68676758 34.51782227 C-62.80431396 35.39752686 -62.92186035 36.27723145 -63.04296875 37.18359375 C-57.17141467 37.2579317 -51.30013656 37.31228492 -45.42822266 37.34838867 C-43.43208034 37.36344473 -41.43597094 37.38389402 -39.43994141 37.40991211 C-36.5653469 37.44643536 -33.69119103 37.46335212 -30.81640625 37.4765625 C-29.92867523 37.49204636 -29.04094421 37.50753021 -28.12631226 37.52348328 C-23.01949927 37.52486017 -19.43233008 37.097758 -15.04296875 34.18359375 C-12.04359003 29.68452568 -12.35170641 25.45446911 -13.04296875 20.18359375 C-14.77514965 15.51289168 -17.34329502 12.31809514 -21.60546875 9.74609375 C-32.77354554 4.66969521 -47.31677985 5.95876548 -56.04296875 15.18359375 Z " fill="#07503D" transform="translate(646.04296875,920.81640625)"/>
<path d="M0 0 C7.55271178 7.97141222 10.08293477 17.35589081 9.95703125 28.18359375 C9.22499596 36.72025145 7.13168471 43.28898726 0.95703125 49.43359375 C-10.11664551 57.8478501 -26.22871359 55.52645774 -39.29296875 55.37109375 C-41.50259506 55.35602149 -43.7122313 55.34233758 -45.921875 55.33007812 C-51.29579216 55.29727017 -56.66933333 55.24727222 -62.04296875 55.18359375 C-61.5830129 57.11315086 -61.11700581 59.04126621 -60.6484375 60.96875 C-60.38957764 62.04261963 -60.13071777 63.11648926 -59.86401367 64.22290039 C-58.0880181 70.62715203 -54.78664723 73.73389572 -49.3359375 77.10546875 C-43.29250496 79.94701454 -37.54358647 80.57193884 -30.98046875 80.55859375 C-30.56555176 80.55778809 -30.56555176 80.55778809 -28.46582031 80.55371094 C-18.09407139 80.35003008 -8.83813686 77.78051891 -0.04296875 72.18359375 C0.61703125 72.18359375 1.27703125 72.18359375 1.95703125 72.18359375 C1.95703125 79.11359375 1.95703125 86.04359375 1.95703125 93.18359375 C-16.11219729 101.24524956 -36.02475811 102.83193885 -55.04296875 97.18359375 C-66.14180987 92.80349231 -74.41820725 86.83162491 -80.04296875 76.18359375 C-87.67420782 57.73738211 -87.88057754 33.10434498 -81.01171875 14.37109375 C-75.56830805 2.30731869 -66.93539621 -3.91130397 -55.04296875 -8.81640625 C-37.32693589 -15.30524282 -14.26736926 -12.68513711 0 0 Z M-57.04296875 16.18359375 C-60.3877613 20.76177855 -61.34920329 25.40119909 -62.1484375 30.9609375 C-62.31883545 32.1274585 -62.4892334 33.29397949 -62.66479492 34.49584961 C-62.78959229 35.38280518 -62.91438965 36.26976074 -63.04296875 37.18359375 C-57.17141467 37.2579317 -51.30013656 37.31228492 -45.42822266 37.34838867 C-43.43208034 37.36344473 -41.43597094 37.38389402 -39.43994141 37.40991211 C-36.5653469 37.44643536 -33.69119103 37.46335212 -30.81640625 37.4765625 C-29.92867523 37.49204636 -29.04094421 37.50753021 -28.12631226 37.52348328 C-23.01949927 37.52486017 -19.43233008 37.097758 -15.04296875 34.18359375 C-12.17922531 29.88797859 -12.45983311 26.22248378 -13.04296875 21.18359375 C-14.67843709 15.20067791 -17.75152311 12.14253215 -23.04296875 9.09375 C-34.41845123 3.91701676 -48.86451099 6.85504036 -57.04296875 16.18359375 Z " fill="#07503D" transform="translate(950.04296875,920.81640625)"/>
<path d="M0 0 C0.07476562 0.58265625 0.14953125 1.1653125 0.2265625 1.765625 C1.93000774 12.38710706 6.60186335 21.24957113 14 29 C20.28134733 26.45164637 23.6224004 20.05629132 26.3046875 14.10546875 C28.04314432 9.46746899 29.46507037 4.9480991 30 0 C37.39424962 -0.24647499 46.24883661 -0.3755817 53 3 C54.04641865 14.51060511 48.12351227 25.67034903 41.05859375 34.3984375 C39.40613465 36.30126919 37.7299655 38.16766968 36 40 C39.48216283 42.05137315 42.77275657 42.56818592 46.75 43.125 C48.8125 43.41375 50.875 43.7025 53 44 C53 50.27 53 56.54 53 63 C45.625 64.4375 45.625 64.4375 43.30712891 64.88452148 C38.22222222 65.88888889 38.22222222 65.88888889 36 67 C36.66386719 67.81082031 37.32773437 68.62164063 38.01171875 69.45703125 C46.44720321 79.95672087 53.57180831 90.99069632 53 105 C45.39701733 107.48260659 37.89688807 107.18508331 30 107 C29.84144531 106.23816406 29.68289063 105.47632813 29.51953125 104.69140625 C27.14398924 94.17864854 23.24283875 86.91659119 16 79 C9.96564665 81.55401359 6.37735941 87.01434668 3.6953125 92.828125 C1.93423202 97.53290935 0.74291137 102.02540718 0 107 C-15.74487472 107.3690205 -15.74487472 107.3690205 -23 105 C-24.19734992 93.02650082 -18.33510607 82.07563972 -11 73 C-9.34226756 70.9922478 -7.67362565 68.99459495 -6 67 C-7.21558594 66.74605469 -8.43117188 66.49210938 -9.68359375 66.23046875 C-11.26838063 65.88350358 -12.85300806 65.53580958 -14.4375 65.1875 C-15.23994141 65.02185547 -16.04238281 64.85621094 -16.86914062 64.68554688 C-18.93749958 64.22300247 -20.97333737 63.62023759 -23 63 C-24.17245774 59.48262679 -24.13266285 56.6424868 -24.125 52.9375 C-24.12757813 51.68839844 -24.13015625 50.43929687 -24.1328125 49.15234375 C-24 46 -24 46 -23 44 C-20.19921875 43.4375 -20.19921875 43.4375 -16.6875 43 C-12.70556885 42.50058646 -9.4771719 42.06054631 -6 40 C-6.49628906 39.51273438 -6.99257813 39.02546875 -7.50390625 38.5234375 C-14.8689251 30.83698519 -22.28552813 19.5450836 -23.1953125 8.6640625 C-23.13020833 6.77604167 -23.06510417 4.88802083 -23 3 C-15.38027809 0.14260428 -8.03016059 -0.16729501 0 0 Z " fill="#07503D" transform="translate(378,911)"/>
<path d="M0 0 C40.92 0 81.84 0 124 0 C124 6.6 124 13.2 124 20 C107.5 20 91 20 74 20 C74 60.59 74 101.18 74 143 C66.08 143 58.16 143 50 143 C50 102.41 50 61.82 50 20 C33.5 20 17 20 0 20 C0 13.4 0 6.8 0 0 Z " fill="#07503D" transform="translate(120,875)"/>
<path d="M0 0 C0 6.93 0 13.86 0 21 C-3.85760697 20.22847861 -7.23458242 19.29991886 -10.9375 18.0625 C-24.45359836 13.85306959 -39.49323427 11.56484502 -53 17 C-55.30772055 19.43620178 -55.93865082 20.58808408 -56.4375 23.9375 C-55.87704299 27.86069906 -54.77086974 29.1720442 -52 32 C-49.34895501 33.29639013 -46.88762011 34.3374399 -44.125 35.3125 C-43.34632568 35.6024585 -42.56765137 35.89241699 -41.76538086 36.19116211 C-37.29636141 37.84565391 -32.80078427 39.42538803 -28.30859375 41.015625 C-0.38157746 50.93086431 -0.38157746 50.93086431 6 61 C9.46306316 68.59689982 8.921672 77.97763354 6.4375 85.75 C3.14125732 93.81258662 -2.32411965 98.35959451 -10.15625 101.93359375 C-31.79114305 110.04667865 -56.05682607 106.33223049 -77 98 C-77 90.74 -77 83.48 -77 76 C-74.751875 76.928125 -72.50375 77.85625 -70.1875 78.8125 C-54.10391049 85.32435818 -36.79380908 89.4824103 -20 83 C-19.01 82.67 -18.02 82.34 -17 82 C-14.81570744 77.41298562 -14.49909104 73.85588192 -16 69 C-20.77339637 65.0637405 -25.34622407 62.82721482 -31.171875 60.87890625 C-31.93493958 60.61166245 -32.69800415 60.34441864 -33.48419189 60.06907654 C-35.90254901 59.2227812 -38.32551918 58.39107406 -40.75 57.5625 C-72.01521383 46.85208579 -72.01521383 46.85208579 -78.16015625 34.70703125 C-80.29404298 27.82896844 -80.13424608 18.71293016 -77.4375 12 C-73.28633113 4.35840193 -67.646467 0.06102494 -59.5546875 -2.99609375 C-40.19412279 -8.46385763 -18.86534867 -6.28844956 0 0 Z " fill="#07503D" transform="translate(842,915)"/>
<path d="M0 0 C7.59 0 15.18 0 23 0 C28.71348453 18.23106176 34.31538675 36.49655033 39.88674927 54.77148438 C40.67137554 57.34465854 41.45800594 59.91720723 42.24630737 62.48925781 C43.3674719 66.15047206 44.48322344 69.81329445 45.59765625 73.4765625 C45.94100006 74.59414948 46.28434387 75.71173645 46.63809204 76.8631897 C46.94967255 77.89140839 47.26125305 78.91962708 47.58227539 79.97900391 C47.85713272 80.87970612 48.13199005 81.78040833 48.41517639 82.70840454 C49 85 49 85 49 88 C49.99 88 50.98 88 52 88 C52.12198761 86.99476288 52.24397522 85.98952576 52.36965942 84.9538269 C52.92448134 81.09208392 53.93947771 77.471683 55.08544922 73.73876953 C55.19040207 73.39435822 55.19040207 73.39435822 55.7215271 71.65142822 C56.41092281 69.39366043 57.10769719 67.13824618 57.8046875 64.8828125 C58.28974063 63.30024987 58.77436281 61.7175551 59.25857544 60.13473511 C60.27260248 56.82371485 61.2899581 53.51374389 62.31005859 50.20458984 C63.61106693 45.98418135 64.90665245 41.76213533 66.20008659 37.5394001 C67.44159596 33.48668495 68.68540355 29.43467652 69.9296875 25.3828125 C70.16378201 24.62015202 70.39787651 23.85749153 70.63906479 23.07172012 C71.31007481 20.8874415 71.98265528 18.70365292 72.65576172 16.52001953 C73.03691132 15.2820462 73.41806091 14.04407288 73.8107605 12.76858521 C75.15878723 8.49681858 76.58348434 4.24954698 78 0 C85.59 0 93.18 0 101 0 C99.75006007 5.62472967 98.53104746 10.8069645 96.78857422 16.234375 C96.57680038 16.897789 96.36502655 17.561203 96.14683533 18.24472046 C95.45321804 20.41437379 94.75399734 22.58217548 94.0546875 24.75 C93.56069537 26.29139179 93.06706052 27.83289813 92.57376099 29.37451172 C91.2750454 33.42988785 89.9715773 37.48372064 88.66705322 41.53723145 C87.36897744 45.57339988 86.07526214 49.61096481 84.78125 53.6484375 C82.78445771 59.87702014 80.7853303 66.10484757 78.78417969 72.33203125 C75.17896257 83.551337 71.58939151 94.77561982 68 106 C56.45 106 44.9 106 33 106 C25.69953164 84.38677131 18.60942841 62.71360722 11.68127441 40.97879028 C10.77004988 38.1201573 9.85628165 35.26235751 8.94030762 32.40524292 C7.84370932 28.98372675 6.75293011 25.56040717 5.66647148 22.13565826 C5.06654088 20.24878518 4.46132698 18.36359449 3.85597229 16.47845459 C3.67497734 15.90559723 3.67497734 15.90559723 2.7590332 13.0065918 C2.44215042 12.01153122 2.12526764 11.01647064 1.79878235 9.99125671 C1 7 1 7 0 0 Z " fill="#07503D" transform="translate(454,912)"/>
<path d="M0 0 C0 7.26 0 14.52 0 22 C-1.1653125 21.4534375 -1.1653125 21.4534375 -7.0625 18.6875 C-24.08549559 11.09666036 -38.34012102 10.57822583 -56 17 C-56.33 44.72 -56.66 72.44 -57 101 C-64.26 101 -71.52 101 -79 101 C-79 69.32 -79 37.64 -79 5 C-52.6383025 -7.3021255 -27.32813961 -13.6640698 0 0 Z " fill="#07503D" transform="translate(754,917)"/>
<path d="M0 0 C1.09129451 0.86505052 2.1781379 1.73598496 3.25 2.625 C1.67160732 9.4647016 -2.87259566 14.74759566 -7.75 19.625 C-11.07370771 19.27185606 -13.1213035 17.77904378 -15.75 15.8125 C-26.8430213 8.27214565 -39.87941772 6.27419892 -52.9375 8.75 C-60.29980074 10.54548314 -66.75825949 13.15356219 -72.625 18 C-74.75 19.625 -74.75 19.625 -76.66015625 19.4609375 C-81.82406407 17.39537437 -86.5496418 10.57580595 -88.75 5.625 C-88.50919347 2.79838999 -87.95924523 1.81745395 -85.8515625 -0.12109375 C-79.74406521 -4.29230247 -73.67239209 -7.74294841 -66.75 -10.375 C-65.90695312 -10.69597656 -65.06390625 -11.01695312 -64.1953125 -11.34765625 C-42.77346576 -18.02257951 -17.80931736 -13.2244318 0 0 Z " fill="#07503D" transform="translate(435.75,876.375)"/>
<path d="M0 0 C3.691875 -0.061875 7.38375 -0.12375 11.1875 -0.1875 C12.3427417 -0.21481201 13.4979834 -0.24212402 14.68823242 -0.27026367 C15.60967041 -0.27775635 16.5311084 -0.28524902 17.48046875 -0.29296875 C18.41785889 -0.3086792 19.35524902 -0.32438965 20.32104492 -0.34057617 C24.36933209 0.1740835 27.00782889 1.95800371 29.7890625 4.87890625 C31.96762692 8.69490781 31.53671012 12.74072351 31 17 C29.5 20.125 29.5 20.125 28 22 C28.4125 22.4021875 28.4125 22.4021875 30.5 24.4375 C33.33342049 27.83438479 33.63213523 30.54659078 33.34765625 34.88671875 C32.84063597 37.96871844 32.11599572 39.67923051 30 42 C23.75915056 45.51895722 18.10053729 45.35655652 11.0625 45.1875 C7.411875 45.125625 3.76125 45.06375 0 45 C0 30.15 0 15.3 0 0 Z M7 6 C7 10.62 7 15.24 7 20 C8.0209375 20.04125 8.0209375 20.04125 13.1875 20.25 C13.76177734 20.27320313 13.76177734 20.27320313 16.66796875 20.390625 C20.65302387 19.92344386 22.23010801 18.85196286 25 16 C25.5625 13 25.5625 13 25 10 C23.41796875 7.828125 23.41796875 7.828125 21 6 C17.546875 5.609375 17.546875 5.609375 13.75 5.75 C12.63625 5.79125 12.63625 5.79125 7 6 Z M7 25 C7 29.62 7 34.24 7 39 C9.39774745 39.13572155 11.78775245 39.23436868 14.1875 39.3125 C14.86103516 39.35439453 15.53457031 39.39628906 16.22851562 39.43945312 C20.18309998 39.5359064 21.83148022 39.13107094 24.98828125 36.67578125 C27 34 27 34 27 30.875 C25.56657904 26.75391473 25.56657904 26.75391473 23 25 C20.18872957 24.78285759 17.6116655 24.71715724 14.8125 24.8125 C14.43770508 24.81926758 14.43770508 24.81926758 12.54101562 24.85351562 C10.69370233 24.88881461 8.84675934 24.94262083 7 25 Z " fill="#07503D" transform="translate(162,1047)"/>
<path d="M0 0 C2.10671259 1.90384397 3.39634999 3.59452499 5 6 C4.67 6.99 4.34 7.98 4 9 C2.35 9.33 0.7 9.66 -1 10 C-1.474375 9.195625 -1.94875 8.39125 -2.4375 7.5625 C-5.57742856 4.42257144 -7.43066283 4.10872938 -11.75 3.8671875 C-15.14882882 4.06781281 -17.24487687 5.03205491 -20 7 C-23.78353141 12.08819742 -24.5227973 16.72643241 -24 23 C-22.43760166 27.20764703 -20.53985267 31.13763109 -17 34 C-12.62285212 35.31731308 -8.92478873 35.32538863 -4.625 33.8125 C-2.09881944 32.06823247 -0.60876444 30.59189826 1 28 C2.65 28.99 4.3 29.98 6 31 C3.92522427 36.07167402 1.7971473 38.35667394 -3 41 C-8.48679182 42.67280238 -14.48650148 43.14201923 -19.6875 40.4375 C-24.38115896 37.34841748 -27.82637468 33.29390404 -30.375 28.3125 C-31.96195192 19.90165482 -31.84379926 12.6980629 -27.5625 5.1328125 C-20.84263941 -4.0397972 -9.60420385 -5.4363418 0 0 Z " fill="#07503D" transform="translate(541,1050)"/>
<path d="M0 0 C3.05079029 2.68760097 4.31596285 4.45811282 5.625 8.3125 C5.625 11.2825 5.625 14.2525 5.625 17.3125 C-2.295 17.6425 -10.215 17.9725 -18.375 18.3125 C-15.375 23.3125 -15.375 23.3125 -12.375 25.3125 C-9.5 25.6875 -9.5 25.6875 -6.375 25.3125 C-5.529375 24.631875 -4.68375 23.95125 -3.8125 23.25 C-1.375 21.3125 -1.375 21.3125 1.4375 21.5625 C2.159375 21.81 2.88125 22.0575 3.625 22.3125 C3.28532174 25.48283042 2.62630809 26.31132607 0.1875 28.5 C-4.83121989 32.04982627 -9.34332953 31.9096951 -15.375 31.3125 C-19.7003672 29.346424 -22.48016647 26.78280641 -24.6796875 22.50390625 C-26.56856155 16.55076948 -26.38455169 10.40638498 -23.6875 4.8125 C-16.62393736 -2.82378393 -9.54510925 -4.77255463 0 0 Z M-16.375 5.3125 C-18.75746609 7.9414281 -19.375 8.70084178 -19.375 12.3125 C-13.105 12.3125 -6.835 12.3125 -0.375 12.3125 C-1.60429936 6.16600318 -1.60429936 6.16600318 -5.375 3.3125 C-10.12177087 1.79757313 -12.47008564 2.25189145 -16.375 5.3125 Z " fill="#07503D" transform="translate(387.375,1060.6875)"/>
<path d="M0 0 C4.56133746 3.90971783 6.81726568 8.78792067 7.28125 14.76171875 C7.07232203 19.47130352 5.90254755 23.9546941 2.71875 27.51953125 C-2.22110456 31.72082913 -5.66118408 32.28500724 -11.98046875 32.21875 C-16.30744069 31.69354513 -18.87353899 30.02328871 -21.8125 26.875 C-25.62890038 21.70439304 -25.47664644 16.05525161 -24.8125 9.875 C-23.05085398 4.59006195 -20.23458724 2.03363374 -15.8125 -1.125 C-10.5799111 -2.90835173 -5.04498023 -2.01799209 0 0 Z M-16.8125 7.875 C-19.14192439 11.65437223 -19.01911406 14.390709 -18.41796875 18.68359375 C-17.45522465 22.16810626 -15.68520752 23.78575817 -12.8125 25.875 C-10.3125 26.875 -10.3125 26.875 -7.8125 26.875 C-4.19772034 25.23974253 -1.59784082 23.44568164 0.1875 19.875 C0.78145701 15.53830022 0.65903454 11.98310617 -1.0625 7.9375 C-3.5794079 4.97114426 -5.43610762 4.08675267 -9.25 3.5 C-12.74720701 4.01178639 -14.30407288 5.43436821 -16.8125 7.875 Z " fill="#07503D" transform="translate(584.8125,1060.125)"/>
<path d="M0 0 C3.70116149 4.54233455 3.50747214 9.15063673 3.625 14.75 C3.67578285 16.47407777 3.73026543 18.19805193 3.7890625 19.921875 C3.80662598 20.68081055 3.82418945 21.43974609 3.84228516 22.22167969 C4 24 4 24 5 25 C5.04080783 26.99958364 5.04254356 29.00045254 5 31 C0.44615385 31.36923077 0.44615385 31.36923077 -1.8125 29.5 C-2.0084375 29.2525 -2.0084375 29.2525 -3 28 C-3.61875 28.495 -4.2375 28.99 -4.875 29.5 C-9.26754375 31.608421 -13.20536086 31.73218627 -18 31 C-20.93423195 29.20353146 -22.47205355 28.0558929 -24 25 C-24.70153846 17.86769231 -24.70153846 17.86769231 -21.625 14.0625 C-17.5802055 10.88444718 -15.49229786 10.88733041 -10.375 10.9375 C-9.18648437 10.94652344 -7.99796875 10.95554687 -6.7734375 10.96484375 C-5.85820313 10.97644531 -4.94296875 10.98804688 -4 11 C-3.8046875 6.234375 -3.8046875 6.234375 -5.5625 4.125 C-10.63817328 1.78238157 -16.0159788 4.17657761 -21 6 C-21.33 4.35 -21.66 2.7 -22 1 C-14.7798546 -3.61287067 -7.57915046 -4.99534917 0 0 Z M-16.5625 16.1875 C-18 18 -18 18 -18.4375 20.5 C-18 23 -18 23 -16.9375 24.8125 C-13.85331877 26.70280462 -11.53487953 26.42662339 -8 26 C-5.0625 24.375 -5.0625 24.375 -3 22 C-2.6875 18.75 -2.6875 18.75 -3 16 C-7.13221575 13.93389212 -12.44516305 14.2794658 -16.5625 16.1875 Z " fill="#07503D" transform="translate(815,1061)"/>
<path d="M0 0 C2.31 0 4.62 0 7 0 C9.97 7.59 12.94 15.18 16 23 C18.47702275 17.42669881 20.75394316 12.1484404 22.75 6.4375 C23.17796875 5.21933594 23.6059375 4.00117187 24.046875 2.74609375 C24.36140625 1.83988281 24.6759375 0.93367188 25 0 C26.98 0 28.96 0 31 0 C30.23985161 4.77790526 28.62228022 9.16583949 26.98046875 13.6953125 C26.68062576 14.52457245 26.38078278 15.3538324 26.07185364 16.20822144 C25.4376582 17.95551115 24.80127412 19.70200783 24.1628418 21.44775391 C23.18982842 24.11860864 22.23454515 26.79540524 21.27929688 29.47265625 C20.65994324 31.17227226 20.03953597 32.87150477 19.41796875 34.5703125 C19.13551804 35.37034698 18.85306732 36.17038147 18.5620575 36.99465942 C15.92531389 44.08690151 15.92531389 44.08690151 12 46 C8.25 46.1875 8.25 46.1875 5 46 C5 44.02 5 42.04 5 40 C6.65 40 8.3 40 10 40 C12.96304391 32.2706883 11.07759869 27.22187675 7.91015625 19.99804688 C7.31598605 18.68579825 6.72092381 17.37395319 6.125 16.0625 C5.25030983 14.07725626 4.38252329 12.08913515 3.51681519 10.09996033 C2.73370458 8.31039011 1.9339187 6.52814448 1.13330078 4.74633789 C0 2 0 2 0 0 Z " fill="#07503D" transform="translate(919,1059)"/>
<path d="M0 0 C1.98 0 3.96 0 6 0 C6.01981934 0.60996826 6.03963867 1.21993652 6.06005859 1.84838867 C6.15567876 4.62850533 6.26520705 7.40790846 6.375 10.1875 C6.4059375 11.14720703 6.436875 12.10691406 6.46875 13.09570312 C6.50742187 14.02705078 6.54609375 14.95839844 6.5859375 15.91796875 C6.6173584 16.77156982 6.6487793 17.6251709 6.68115234 18.50463867 C7.03873004 21.3031085 7.74802412 23.4743868 9 26 C11.25 27.0625 11.25 27.0625 14 27 C19.54666667 23.90666667 19.54666667 23.90666667 21 21 C21.15175549 19.40737934 21.24900325 17.80935144 21.31640625 16.2109375 C21.35830078 15.26992187 21.40019531 14.32890625 21.44335938 13.359375 C21.48267578 12.37453125 21.52199219 11.3896875 21.5625 10.375 C21.60568359 9.38242188 21.64886719 8.38984375 21.69335938 7.3671875 C21.79961069 4.91160162 21.90164964 2.45591297 22 0 C23.98 0 25.96 0 28 0 C28 8.91 28 17.82 28 27 C28.66 27 29.32 27 30 27 C30 28.98 30 30.96 30 33 C28.845 32.835 28.845 32.835 23 32 C22.67 31.01 22.34 30.02 22 29 C21.030625 29.66 20.06125 30.32 19.0625 31 C14.78309173 33.42181523 10.82677374 34.05755155 6 33 C2.4365787 30.32743403 0.75760165 28.33497629 0 24 C-0.08026745 22.12122376 -0.10765872 20.2398385 -0.09765625 18.359375 C-0.09443359 17.28945312 -0.09121094 16.21953125 -0.08789062 15.1171875 C-0.07951172 14.00601562 -0.07113281 12.89484375 -0.0625 11.75 C-0.05798828 10.62335938 -0.05347656 9.49671875 -0.04882812 8.3359375 C-0.03705397 5.55723783 -0.0206084 2.77864591 0 0 Z " fill="#07503D" transform="translate(690,1059)"/>
<path d="M0 0 C2.69990662 1.79993774 4.5418865 3.083773 6 6 C6.08543895 8.10528933 6.10714725 10.21331157 6.09765625 12.3203125 C6.09443359 13.57714844 6.09121094 14.83398438 6.08789062 16.12890625 C6.07951172 17.44761719 6.07113281 18.76632812 6.0625 20.125 C6.05748489 21.46484211 6.05292201 22.804686 6.04882812 24.14453125 C6.03701086 27.42973206 6.02053617 30.71484397 6 34 C4.02 34 2.04 34 0 34 C-0.01981934 33.2886792 -0.03963867 32.5773584 -0.06005859 31.84448242 C-0.15524867 28.62511184 -0.26495229 25.4063955 -0.375 22.1875 C-0.4059375 21.06794922 -0.436875 19.94839844 -0.46875 18.79492188 C-0.50742187 17.72177734 -0.54609375 16.64863281 -0.5859375 15.54296875 C-0.60164795 15.0480896 -0.60164795 15.0480896 -0.68115234 12.54370117 C-1 10 -1 10 -3 7 C-9.25429553 7.36082474 -9.25429553 7.36082474 -12.1875 9.875 C-14.82845492 14.42837055 -14.6734772 18.63329753 -14.75 23.8125 C-14.77964844 24.79154297 -14.80929687 25.77058594 -14.83984375 26.77929688 C-14.91029202 29.18627953 -14.96311025 31.5923079 -15 34 C-16.98 34 -18.96 34 -21 34 C-21 23.11 -21 12.22 -21 1 C-19.02 1 -17.04 1 -15 1 C-14.67 1.99 -14.34 2.98 -14 4 C-13.74605469 3.855625 -13.74605469 3.855625 -12.4609375 3.125 C-8.21229416 0.83359685 -4.94021924 -0.8782612 0 0 Z " fill="#07503D" transform="translate(857,1058)"/>
<path d="M0 0 C2.66732614 2.70855747 3.90406029 4.33703598 4.45410156 8.13793945 C4.44362793 8.71137085 4.44362793 8.71137085 4.390625 11.61328125 C4.38417969 12.23686523 4.38417969 12.23686523 4.3515625 15.39257812 C4.31804687 16.68615234 4.28453125 17.97972656 4.25 19.3125 C4.24097656 19.96895508 4.24097656 19.96895508 4.1953125 23.29101562 C4.14822786 26.52808488 4.08247042 29.76367053 4 33 C2.02 33 0.04 33 -2 33 C-2.01981934 32.2886792 -2.03963867 31.5773584 -2.06005859 30.84448242 C-2.15524867 27.62511184 -2.26495229 24.4063955 -2.375 21.1875 C-2.4059375 20.06794922 -2.436875 18.94839844 -2.46875 17.79492188 C-2.50742187 16.72177734 -2.54609375 15.64863281 -2.5859375 14.54296875 C-2.60164795 14.0480896 -2.60164795 14.0480896 -2.68115234 11.54370117 C-3 9 -3 9 -5 6 C-11.25429553 6.36082474 -11.25429553 6.36082474 -14.1875 8.875 C-16.82845492 13.42837055 -16.6734772 17.63329753 -16.75 22.8125 C-16.77964844 23.79154297 -16.80929687 24.77058594 -16.83984375 25.77929688 C-16.91029202 28.18627953 -16.96311025 30.5923079 -17 33 C-18.98 33 -20.96 33 -23 33 C-23 22.11 -23 11.22 -23 0 C-21.02 0 -19.04 0 -17 0 C-16.67 0.99 -16.34 1.98 -16 3 C-15.4225 2.525625 -14.845 2.05125 -14.25 1.5625 C-9.96504635 -1.41316226 -4.92306769 -1.82691965 0 0 Z " fill="#07503D" transform="translate(342,1059)"/>
<path d="M0 0 C2.30833662 3.53039718 2.17934576 6.73685325 2.16015625 10.82421875 C2.15693359 12.03271484 2.15371094 13.24121094 2.15039062 14.48632812 C2.14201172 15.74896484 2.13363281 17.01160156 2.125 18.3125 C2.12048828 19.58673828 2.11597656 20.86097656 2.11132812 22.17382812 C2.09952873 25.32426564 2.08306597 28.47460949 2.0625 31.625 C0.0825 31.625 -1.8975 31.625 -3.9375 31.625 C-3.95731934 30.9136792 -3.97713867 30.2023584 -3.99755859 29.46948242 C-4.09274867 26.25011184 -4.20245229 23.0313955 -4.3125 19.8125 C-4.3434375 18.69294922 -4.374375 17.57339844 -4.40625 16.41992188 C-4.44492187 15.34677734 -4.48359375 14.27363281 -4.5234375 13.16796875 C-4.53914795 12.6730896 -4.53914795 12.6730896 -4.61865234 10.16870117 C-4.9375 7.625 -4.9375 7.625 -6.9375 4.625 C-13.19179553 4.98582474 -13.19179553 4.98582474 -16.125 7.5 C-18.76595492 12.05337055 -18.6109772 16.25829753 -18.6875 21.4375 C-18.71714844 22.41654297 -18.74679687 23.39558594 -18.77734375 24.40429688 C-18.84779202 26.81127953 -18.90061025 29.2173079 -18.9375 31.625 C-20.9175 31.625 -22.8975 31.625 -24.9375 31.625 C-24.9375 20.735 -24.9375 9.845 -24.9375 -1.375 C-22.9575 -1.375 -20.9775 -1.375 -18.9375 -1.375 C-18.6075 -0.385 -18.2775 0.605 -17.9375 1.625 C-17.36 1.150625 -16.7825 0.67625 -16.1875 0.1875 C-11.45147893 -3.10140352 -4.83146129 -3.42877898 0 0 Z " fill="#07503D" transform="translate(631.9375,1060.375)"/>
<path d="M0 0 C1.98 0 3.96 0 6 0 C6.0093457 0.67579102 6.01869141 1.35158203 6.02832031 2.04785156 C6.08207301 5.1159711 6.16570992 8.18257387 6.25 11.25 C6.26417969 12.31347656 6.27835938 13.37695312 6.29296875 14.47265625 C6.32519531 15.49746094 6.35742188 16.52226563 6.390625 17.578125 C6.41157227 18.52075195 6.43251953 19.46337891 6.45410156 20.43457031 C7.14219247 23.66822831 8.516836 24.89753013 11 27 C17.64780888 25.07952188 17.64780888 25.07952188 20 22 C20.43237305 19.63989258 20.43237305 19.63989258 20.51171875 16.89453125 C20.54716797 15.91162109 20.58261719 14.92871094 20.61914062 13.91601562 C20.64169922 12.89185547 20.66425781 11.86769531 20.6875 10.8125 C20.72166016 9.77673828 20.75582031 8.74097656 20.79101562 7.67382812 C20.87352642 5.1159934 20.94266572 2.55850277 21 0 C22.98 0 24.96 0 27 0 C27.02505615 0.78238037 27.0501123 1.56476074 27.07592773 2.37084961 C27.19149788 5.89324949 27.31439949 9.4153556 27.4375 12.9375 C27.47681641 14.16919922 27.51613281 15.40089844 27.55664062 16.66992188 C27.59853516 17.83974609 27.64042969 19.00957031 27.68359375 20.21484375 C27.72025146 21.29886475 27.75690918 22.38288574 27.79467773 23.49975586 C28 26 28 26 29 27 C29.04080783 28.99958364 29.04254356 31.00045254 29 33 C26.6875 33.25 26.6875 33.25 24 33 C22.1875 31 22.1875 31 21 29 C20.21625 29.66 19.4325 30.32 18.625 31 C14.38804628 33.82463581 9.91870739 33.85212598 5 33 C1.90200019 30.80873184 1.19647888 29.58943664 0 26 C-0.08291953 24.0079697 -0.10738177 22.01326287 -0.09765625 20.01953125 C-0.09443359 18.85615234 -0.09121094 17.69277344 -0.08789062 16.49414062 C-0.07951172 15.27919922 -0.07113281 14.06425781 -0.0625 12.8125 C-0.05798828 11.58595703 -0.05347656 10.35941406 -0.04882812 9.09570312 C-0.03703065 6.06375332 -0.02056921 3.03190094 0 0 Z " fill="#07503D" transform="translate(211,1059)"/>
<path d="M0 0 C3.125 1.75 3.125 1.75 4.0625 3.9375 C4.083125 4.535625 4.10375 5.13375 4.125 5.75 C3.135 6.41 2.145 7.07 1.125 7.75 C0.279375 7.234375 -0.56625 6.71875 -1.4375 6.1875 C-5.46236786 4.50437344 -7.67714298 4.82647145 -11.875 5.75 C-12.205 7.07 -12.535 8.39 -12.875 9.75 C-11.905625 10.1625 -10.93625 10.575 -9.9375 11 C-8.5832561 11.58315401 -7.22909785 12.16650693 -5.875 12.75 C-5.47925781 12.91822266 -5.47925781 12.91822266 -3.4765625 13.76953125 C-2.67992187 14.11371094 -1.88328125 14.45789062 -1.0625 14.8125 C-0.31355469 15.13347656 0.43539063 15.45445313 1.20703125 15.78515625 C3.125 16.75 3.125 16.75 5.125 18.75 C5.58493557 23.42601163 5.79558528 25.66318937 3.3125 29.6875 C-0.63167702 33.40629548 -4.84306181 33.07135414 -10 33.05078125 C-14.3256337 32.59823533 -17.1759044 30.98341621 -20.875 28.75 C-20.215 27.1 -19.555 25.45 -18.875 23.75 C-14.125 25.625 -14.125 25.625 -11.875 26.75 C-10 26.8828125 -10 26.8828125 -7.875 26.875 C-7.17375 26.87757812 -6.4725 26.88015625 -5.75 26.8828125 C-3.875 26.75 -3.875 26.75 -1.875 25.75 C-2.04 24.925 -2.04 24.925 -2.875 20.75 C-3.68324219 20.51925781 -4.49148438 20.28851562 -5.32421875 20.05078125 C-16.96051189 16.49953618 -16.96051189 16.49953618 -19.875 11.75 C-20.23015484 8.83307258 -19.93031588 6.49152711 -18.875 3.75 C-13.54660941 -1.71861139 -7.10249914 -2.68901202 0 0 Z " fill="#07503D" transform="translate(274.875,1059.25)"/>
<path d="M0 0 C3.125 1.75 3.125 1.75 4.0625 3.9375 C4.083125 4.535625 4.10375 5.13375 4.125 5.75 C3.135 6.41 2.145 7.07 1.125 7.75 C0.279375 7.234375 -0.56625 6.71875 -1.4375 6.1875 C-5.46236786 4.50437344 -7.67714298 4.82647145 -11.875 5.75 C-12.205 7.07 -12.535 8.39 -12.875 9.75 C-11.905625 10.1625 -10.93625 10.575 -9.9375 11 C-8.5832561 11.58315401 -7.22909785 12.16650693 -5.875 12.75 C-5.47925781 12.91822266 -5.47925781 12.91822266 -3.4765625 13.76953125 C-2.67992187 14.11371094 -1.88328125 14.45789062 -1.0625 14.8125 C-0.31355469 15.13347656 0.43539063 15.45445313 1.20703125 15.78515625 C3.125 16.75 3.125 16.75 5.125 18.75 C5.62931963 21.78764616 5.57442707 24.70689139 5.125 27.75 C2.92668636 30.78215675 1.67536806 31.56654398 -1.875 32.75 C-9.38119913 33.48970621 -14.42071852 32.64692467 -20.875 28.75 C-20.215 27.1 -19.555 25.45 -18.875 23.75 C-14.125 25.625 -14.125 25.625 -11.875 26.75 C-10 26.8828125 -10 26.8828125 -7.875 26.875 C-7.17375 26.87757812 -6.4725 26.88015625 -5.75 26.8828125 C-3.875 26.75 -3.875 26.75 -1.875 25.75 C-2.04 24.925 -2.04 24.925 -2.875 20.75 C-3.68324219 20.51925781 -4.49148438 20.28851562 -5.32421875 20.05078125 C-16.87666574 16.52512493 -16.87666574 16.52512493 -19.875 11.75 C-20.03610642 7.23902014 -19.37946865 5.36067258 -16.5 1.875 C-11.50426768 -2.16916426 -5.90459667 -2.23548516 0 0 Z " fill="#07503D" transform="translate(465.875,1059.25)"/>
<path d="M0 0 C3.125 1.75 3.125 1.75 4.0625 3.9375 C4.083125 4.535625 4.10375 5.13375 4.125 5.75 C3.135 6.41 2.145 7.07 1.125 7.75 C0.279375 7.234375 -0.56625 6.71875 -1.4375 6.1875 C-5.46236786 4.50437344 -7.67714298 4.82647145 -11.875 5.75 C-12.205 7.07 -12.535 8.39 -12.875 9.75 C-8.65176469 12.02404978 -4.51061613 13.57593522 0.07421875 14.90625 C2.41125278 15.86777257 3.59367606 16.74310963 5.125 18.75 C5.65822082 23.47281301 5.81728239 25.62802509 3.3125 29.6875 C-0.66631761 33.4389566 -4.8789969 33.02085149 -10.0703125 32.97265625 C-14.00093969 32.66061482 -16.47803484 31.74387085 -19.875 29.75 C-20.205 28.76 -20.535 27.77 -20.875 26.75 C-20.545 26.255 -20.545 26.255 -18.875 23.75 C-14.125 25.625 -14.125 25.625 -11.875 26.75 C-10 26.8828125 -10 26.8828125 -7.875 26.875 C-7.17375 26.87757812 -6.4725 26.88015625 -5.75 26.8828125 C-3.875 26.75 -3.875 26.75 -1.875 25.75 C-2.04 24.925 -2.04 24.925 -2.875 20.75 C-3.68324219 20.51925781 -4.49148438 20.28851562 -5.32421875 20.05078125 C-16.96051189 16.49953618 -16.96051189 16.49953618 -19.875 11.75 C-20.23015484 8.83307258 -19.93031588 6.49152711 -18.875 3.75 C-13.54660941 -1.71861139 -7.10249914 -2.68901202 0 0 Z " fill="#07503D" transform="translate(426.875,1059.25)"/>
<path d="M0 0 C3.125 1.75 3.125 1.75 4.0625 3.9375 C4.083125 4.535625 4.10375 5.13375 4.125 5.75 C3.135 6.41 2.145 7.07 1.125 7.75 C0.279375 7.234375 -0.56625 6.71875 -1.4375 6.1875 C-5.46236786 4.50437344 -7.67714298 4.82647145 -11.875 5.75 C-12.205 7.07 -12.535 8.39 -12.875 9.75 C-11.905625 10.1625 -10.93625 10.575 -9.9375 11 C-8.5832561 11.58315401 -7.22909785 12.16650693 -5.875 12.75 C-5.47925781 12.91822266 -5.47925781 12.91822266 -3.4765625 13.76953125 C-2.67992187 14.11371094 -1.88328125 14.45789062 -1.0625 14.8125 C-0.31355469 15.13347656 0.43539062 15.45445313 1.20703125 15.78515625 C3.125 16.75 3.125 16.75 5.125 18.75 C5.58493557 23.42601163 5.79558528 25.66318937 3.3125 29.6875 C-0.63167702 33.40629548 -4.84306181 33.07135414 -10 33.05078125 C-14.3256337 32.59823533 -17.1759044 30.98341621 -20.875 28.75 C-20.215 27.1 -19.555 25.45 -18.875 23.75 C-14.125 25.625 -14.125 25.625 -11.875 26.75 C-10 26.8828125 -10 26.8828125 -7.875 26.875 C-7.17375 26.87757812 -6.4725 26.88015625 -5.75 26.8828125 C-3.875 26.75 -3.875 26.75 -1.875 25.75 C-1.9453125 23.41015625 -1.9453125 23.41015625 -2.875 20.75 C-5.9296875 19.30859375 -5.9296875 19.30859375 -9.75 18.1875 C-16.40023486 16.21427836 -16.40023486 16.21427836 -18.8203125 13.84765625 C-20.22587875 11.05214116 -20.03345399 8.69544216 -19.5234375 5.65234375 C-18.47887545 2.58787556 -16.58556802 1.36343335 -13.875 -0.25 C-9.06817734 -1.85227422 -4.73271056 -1.79180811 0 0 Z " fill="#07503D" transform="translate(669.875,1059.25)"/>
<path d="M0 0 C1.7728335 1.47736125 3.39054559 2.88352009 4.859375 4.6640625 C4.859375 5.3240625 4.859375 5.9840625 4.859375 6.6640625 C2.171875 7.9140625 2.171875 7.9140625 -1.140625 8.6640625 C-1.5221875 8.344375 -1.5221875 8.344375 -3.453125 6.7265625 C-6.57321574 4.33207426 -7.21249777 4.46401829 -10.953125 4.9140625 C-12.35266954 5.14237319 -13.75023443 5.38537855 -15.140625 5.6640625 C-17.30583021 9.99447292 -17.76587477 13.91216428 -17.140625 18.6640625 C-15.87405768 21.57716734 -14.84473054 23.12991347 -12.328125 25.0390625 C-9.27069149 25.91261493 -7.18492538 25.50610303 -4.140625 24.6640625 C-3.645625 24.1278125 -3.150625 23.5915625 -2.640625 23.0390625 C-2.145625 22.5853125 -1.650625 22.1315625 -1.140625 21.6640625 C2.046875 21.9765625 2.046875 21.9765625 4.859375 22.6640625 C4.51969674 25.83439292 3.86068309 26.66288857 1.421875 28.8515625 C-3.59684489 32.40138877 -8.10895453 32.2612576 -14.140625 31.6640625 C-18.4659922 29.6979865 -21.24579147 27.13436891 -23.4453125 22.85546875 C-25.33418655 16.90233198 -25.15017669 10.75794748 -22.453125 5.1640625 C-16.29274383 -1.49580903 -8.54599383 -5.3334487 0 0 Z " fill="#07503D" transform="translate(903.140625,1060.3359375)"/>
<path d="M0 0 C1.98 0 3.96 0 6 0 C6 3.63 6 7.26 6 11 C8.31 11 10.62 11 13 11 C13 12.65 13 14.3 13 16 C10.69 16 8.38 16 6 16 C6.33 22.6 6.66 29.2 7 36 C8.65 36.33 10.3 36.66 12 37 C12.495 37.165 12.495 37.165 15 38 C14.625 40.4375 14.625 40.4375 14 43 C10.87057535 44.56471233 7.38917777 44.69701958 4 44 C1.34607328 41.88935566 0.12513234 40.73222601 -0.45410156 37.34277344 C-0.4331543 36.35825195 -0.41220703 35.37373047 -0.390625 34.359375 C-0.37773438 33.28945312 -0.36484375 32.21953125 -0.3515625 31.1171875 C-0.31804688 30.00601562 -0.28453125 28.89484375 -0.25 27.75 C-0.23195313 26.62335938 -0.21390625 25.49671875 -0.1953125 24.3359375 C-0.14820222 21.55643104 -0.08243361 18.7786466 0 16 C-1.32 16 -2.64 16 -4 16 C-4 14.35 -4 12.7 -4 11 C-2.68 11 -1.36 11 0 11 C0 7.37 0 3.74 0 0 Z " fill="#07503D" transform="translate(764,1048)"/>
<path d="M0 0 C1.98 0 3.96 0 6 0 C6.33 13.2 6.66 26.4 7 40 C8.98 40 10.96 40 13 40 C13.33 41.65 13.66 43.3 14 45 C10.40735548 46.19754817 7.77282526 46.33094958 4 46 C1.80175781 44.57910156 1.80175781 44.57910156 0 42 C-0.55294289 38.80314543 -0.46501156 35.65765409 -0.390625 32.421875 C-0.38496521 31.4953009 -0.37930542 30.56872681 -0.37347412 29.61407471 C-0.35110921 26.65885438 -0.30091262 23.70485295 -0.25 20.75 C-0.22993515 18.7448092 -0.21168435 16.73959936 -0.1953125 14.734375 C-0.151244 9.82244806 -0.08221555 4.91143058 0 0 Z " fill="#07503D" transform="translate(736,1046)"/>
<path d="M0 0 C1.98 0 3.96 0 6 0 C6 10.89 6 21.78 6 33 C4.02 33 2.04 33 0 33 C0 22.11 0 11.22 0 0 Z " fill="#07503D" transform="translate(296,1059)"/>
<path d="M0 0 C1.98 0 3.96 0 6 0 C6 2.64 6 5.28 6 8 C4.02 8 2.04 8 0 8 C0 5.36 0 2.72 0 0 Z " fill="#07503D" transform="translate(296,1046)"/>
</svg>
